<svg xmlns="http://www.w3.org/2000/svg" xmlns:xlink="http://www.w3.org/1999/xlink" xmlns:lucid="lucid" width="1842.47" height="818"><g transform="translate(-319.5 -759.5)" lucid:page-tab-id="0_0"><path d="M320 1399a10 10 0 0 1 10-10h260a10 10 0 0 1 10 10v168a10 10 0 0 1-10 10H330a10 10 0 0 1-10-10z" fill="#fff"/><path d="M320 1399a10 10 0 0 1 10-10h260a10 10 0 0 1 10 10v30H320z" fill="#008a0e"/><path d="M320 1429h280v31H320z" fill="#fff"/><path d="M320 1459h280v31H320z" fill="#fff"/><path d="M320 1489h280v31H320z" fill="#fff"/><path d="M320 1519h280v31H320z" fill="#fff"/><path d="M320 1549h280v18a10 10 0 0 1-10 10H330a10 10 0 0 1-10-10z" fill="#fff"/><path d="M320.5 1429h279-279zM320 1399a10 10 0 0 1 10-10h260a10 10 0 0 1 10 10v168a10 10 0 0 1-10 10H330a10 10 0 0 1-10-10zM460 1429.5v147z" stroke="#282c33" fill="none"/><use xlink:href="#a" transform="matrix(1,0,0,1,330,1389) translate(0 26.089501953125)"/><use xlink:href="#b" transform="matrix(1,0,0,1,325,1431.5) translate(0 18.589501953125)"/><use xlink:href="#c" transform="matrix(1,0,0,1,465,1431.5) translate(0 18.589501953125)"/><use xlink:href="#d" transform="matrix(1,0,0,1,465,1431.5) translate(38.80933593750001 18.589501953125)"/><use xlink:href="#e" transform="matrix(1,0,0,1,325,1461.5) translate(0 18.589501953125)"/><use xlink:href="#f" transform="matrix(1,0,0,1,465,1461.5) translate(0 18.589501953125)"/><use xlink:href="#g" transform="matrix(1,0,0,1,325,1491.5) translate(0 18.589501953125)"/><use xlink:href="#f" transform="matrix(1,0,0,1,465,1491.5) translate(0 18.589501953125)"/><use xlink:href="#h" transform="matrix(1,0,0,1,325,1521.5) translate(0 18.589501953125)"/><use xlink:href="#i" transform="matrix(1,0,0,1,465,1521.5) translate(0 18.589501953125)"/><path d="M320 910a10 10 0 0 1 10-10h260a10 10 0 0 1 10 10v191a10 10 0 0 1-10 10H330a10 10 0 0 1-10-10z" fill="#fff"/><path d="M320 910a10 10 0 0 1 10-10h260a10 10 0 0 1 10 10v30H320z" fill="#fcce14"/><path d="M320 940h280v31H320z" fill="#fff"/><path d="M320 970h280v31H320z" fill="#fff"/><path d="M320 1000h280v31H320z" fill="#fff"/><path d="M320 1030h280v31H320z" fill="#fff"/><path d="M320 1060h280v41a10 10 0 0 1-10 10H330a10 10 0 0 1-10-10z" fill="#fff"/><path d="M320.5 940h279-279zM320 910a10 10 0 0 1 10-10h260a10 10 0 0 1 10 10v191a10 10 0 0 1-10 10H330a10 10 0 0 1-10-10zM460 940.5v170z" stroke="#282c33" fill="none"/><use xlink:href="#j" transform="matrix(1,0,0,1,330,900) translate(0 26.089501953125)"/><use xlink:href="#k" transform="matrix(1,0,0,1,325,942.5) translate(0 18.589501953125)"/><use xlink:href="#c" transform="matrix(1,0,0,1,465,942.5) translate(0 18.589501953125)"/><use xlink:href="#d" transform="matrix(1,0,0,1,465,942.5) translate(38.80933593750001 18.589501953125)"/><use xlink:href="#l" transform="matrix(1,0,0,1,325,972.5) translate(0 18.589501953125)"/><use xlink:href="#m" transform="matrix(1,0,0,1,465,972.5) translate(0 18.589501953125)"/><use xlink:href="#n" transform="matrix(1,0,0,1,325,1002.5) translate(0 18.589501953125)"/><use xlink:href="#o" transform="matrix(1,0,0,1,465,1002.5) translate(0 18.589501953125)"/><use xlink:href="#p" transform="matrix(1,0,0,1,325,1032.5) translate(0 18.589501953125)"/><use xlink:href="#c" transform="matrix(1,0,0,1,465,1032.5) translate(0 18.589501953125)"/><use xlink:href="#q" transform="matrix(1,0,0,1,465,1032.5) translate(38.80933593750001 18.589501953125)"/><use xlink:href="#r" transform="matrix(1,0,0,1,325,1062.5) translate(0 29.089501953125)"/><use xlink:href="#s" transform="matrix(1,0,0,1,465,1062.5) translate(0 18.96212890625)"/><use xlink:href="#t" transform="matrix(1,0,0,1,465,1062.5) translate(37.526044921875005 18.96212890625)"/><use xlink:href="#u" transform="matrix(1,0,0,1,465,1062.5) translate(0 39.216875)"/><use xlink:href="#v" transform="matrix(1,0,0,1,465,1062.5) translate(65.47236328125 39.216875)"/><path d="M960 810a10 10 0 0 1 10-10h360a10 10 0 0 1 10 10v200a10 10 0 0 1-10 10H970a10 10 0 0 1-10-10z" fill="#fff"/><path d="M960 810a10 10 0 0 1 10-10h360a10 10 0 0 1 10 10v30H960z" fill="#008573"/><path d="M960 840h380v31H960z" fill="#fff"/><path d="M960 870h380v31H960z" fill="#fff"/><path d="M960 900h380v31H960z" fill="#fff"/><path d="M960 930h380v31H960z" fill="#fff"/><path d="M960 960h380v31H960z" fill="#fff"/><path d="M960 990h380v20a10 10 0 0 1-10 10H970a10 10 0 0 1-10-10z" fill="#fff"/><path d="M960.5 840h379-379zM960 810a10 10 0 0 1 10-10h360a10 10 0 0 1 10 10v200a10 10 0 0 1-10 10H970a10 10 0 0 1-10-10zM1132.3 840.5v179z" stroke="#282c33" fill="none"/><use xlink:href="#w" transform="matrix(1,0,0,1,970,800) translate(0 26.089501953125)"/><use xlink:href="#x" transform="matrix(1,0,0,1,965,842.5) translate(0 18.589501953125)"/><use xlink:href="#c" transform="matrix(1,0,0,1,1137.2923734255196,842.5) translate(0 18.589501953125)"/><use xlink:href="#d" transform="matrix(1,0,0,1,1137.2923734255196,842.5) translate(38.80933593750001 18.589501953125)"/><use xlink:href="#y" transform="matrix(1,0,0,1,965,872.5) translate(0 18.589501953125)"/><use xlink:href="#m" transform="matrix(1,0,0,1,1137.2923734255196,872.5) translate(0 18.589501953125)"/><use xlink:href="#z" transform="matrix(1,0,0,1,965,902.5) translate(0 18.589501953125)"/><use xlink:href="#A" transform="matrix(1,0,0,1,1137.2923734255196,902.5) translate(0 18.589501953125)"/><use xlink:href="#B" transform="matrix(1,0,0,1,965,932.5) translate(0 18.589501953125)"/><use xlink:href="#m" transform="matrix(1,0,0,1,1137.2923734255196,932.5) translate(0 18.589501953125)"/><use xlink:href="#C" transform="matrix(1,0,0,1,965,962.5) translate(0 18.589501953125)"/><use xlink:href="#c" transform="matrix(1,0,0,1,1137.2923734255196,962.5) translate(0 18.589501953125)"/><use xlink:href="#q" transform="matrix(1,0,0,1,1137.2923734255196,962.5) translate(38.80933593750001 18.589501953125)"/><use xlink:href="#D" transform="matrix(1,0,0,1,965,992.5) translate(0 18.589501953125)"/><use xlink:href="#E" transform="matrix(1,0,0,1,1137.2923734255196,992.5) translate(0 18.589501953125)"/><path d="M1700 1030a10 10 0 0 1 10-10h260a10 10 0 0 1 10 10v200a10 10 0 0 1-10 10h-260a10 10 0 0 1-10-10z" fill="#fff"/><path d="M1700 1030a10 10 0 0 1 10-10h260a10 10 0 0 1 10 10v30h-280z" fill="#82755b"/><path d="M1700 1060h280v31h-280z" fill="#fff"/><path d="M1700 1090h280v31h-280z" fill="#fff"/><path d="M1700 1120h280v31h-280z" fill="#fff"/><path d="M1700 1150h280v31h-280z" fill="#fff"/><path d="M1700 1180h280v31h-280z" fill="#fff"/><path d="M1700 1210h280v20a10 10 0 0 1-10 10h-260a10 10 0 0 1-10-10z" fill="#fff"/><path d="M1700.5 1060h279-279zM1700 1030a10 10 0 0 1 10-10h260a10 10 0 0 1 10 10v200a10 10 0 0 1-10 10h-260a10 10 0 0 1-10-10zM1838.28 1060.5v179z" stroke="#282c33" fill="none"/><use xlink:href="#F" transform="matrix(1,0,0,1,1710,1019.99993065136) translate(0 26.089501953125)"/><use xlink:href="#G" transform="matrix(1,0,0,1,1710,1019.99993065136) translate(43.991542968750004 26.089501953125)"/><use xlink:href="#H" transform="matrix(1,0,0,1,1705,1062.49993065136) translate(0 18.589501953125)"/><use xlink:href="#c" transform="matrix(1,0,0,1,1843.2798345758615,1062.49993065136) translate(0 18.589501953125)"/><use xlink:href="#d" transform="matrix(1,0,0,1,1843.2798345758615,1062.49993065136) translate(38.80933593750001 18.589501953125)"/><use xlink:href="#I" transform="matrix(1,0,0,1,1705,1092.49993065136) translate(0 18.589501953125)"/><use xlink:href="#m" transform="matrix(1,0,0,1,1843.2798345758615,1092.49993065136) translate(0 18.589501953125)"/><use xlink:href="#J" transform="matrix(1,0,0,1,1705,1122.49993065136) translate(0 18.589501953125)"/><use xlink:href="#K" transform="matrix(1,0,0,1,1843.2798345758615,1122.49993065136) translate(0 18.589501953125)"/><use xlink:href="#L" transform="matrix(1,0,0,1,1705,1152.49993065136) translate(0 18.589501953125)"/><use xlink:href="#M" transform="matrix(1,0,0,1,1843.2798345758615,1152.49993065136) translate(0 18.589501953125)"/><use xlink:href="#N" transform="matrix(1,0,0,1,1705,1182.49993065136) translate(0 18.589501953125)"/><use xlink:href="#M" transform="matrix(1,0,0,1,1843.2798345758615,1182.49993065136) translate(0 18.589501953125)"/><use xlink:href="#C" transform="matrix(1,0,0,1,1705,1212.49993065136) translate(0 18.589501953125)"/><use xlink:href="#c" transform="matrix(1,0,0,1,1843.2798345758615,1212.49993065136) translate(0 18.589501953125)"/><use xlink:href="#q" transform="matrix(1,0,0,1,1843.2798345758615,1212.49993065136) translate(38.80933593750001 18.589501953125)"/><path d="M1700 1270a10 10 0 0 1 10-10h441.47a10 10 0 0 1 10 10v140a10 10 0 0 1-10 10H1710a10 10 0 0 1-10-10z" fill="#fff"/><path d="M1700 1270a10 10 0 0 1 10-10h441.47a10 10 0 0 1 10 10v30H1700z" fill="#d916a8"/><path d="M1700 1300h461.47v31H1700z" fill="#fff"/><path d="M1700 1330h461.47v31H1700z" fill="#fff"/><path d="M1700 1360h461.47v31H1700z" fill="#fff"/><path d="M1700 1390h461.47v20a10 10 0 0 1-10 10H1710a10 10 0 0 1-10-10z" fill="#fff"/><path d="M1700.5 1300h460.47-460.47zM1700 1270a10 10 0 0 1 10-10h441.47a10 10 0 0 1 10 10v140a10 10 0 0 1-10 10H1710a10 10 0 0 1-10-10zM1916.84 1300.5v119z" stroke="#282c33" fill="none"/><use xlink:href="#O" transform="matrix(1,0,0,1,1710,1259.99993065136) translate(0 26.089501953125)"/><use xlink:href="#P" transform="matrix(1,0,0,1,1710,1259.99993065136) translate(47.972197265625006 26.089501953125)"/><use xlink:href="#x" transform="matrix(1,0,0,1,1705,1302.49993065136) translate(0 18.589501953125)"/><use xlink:href="#c" transform="matrix(1,0,0,1,1921.842081163675,1302.49993065136) translate(0 18.589501953125)"/><use xlink:href="#q" transform="matrix(1,0,0,1,1921.842081163675,1302.49993065136) translate(38.80933593750001 18.589501953125)"/><use xlink:href="#H" transform="matrix(1,0,0,1,1705,1332.49993065136) translate(0 18.589501953125)"/><use xlink:href="#c" transform="matrix(1,0,0,1,1921.842081163675,1332.49993065136) translate(0 18.589501953125)"/><use xlink:href="#q" transform="matrix(1,0,0,1,1921.842081163675,1332.49993065136) translate(38.80933593750001 18.589501953125)"/><use xlink:href="#Q" transform="matrix(1,0,0,1,1705,1362.49993065136) translate(0 18.589501953125)"/><use xlink:href="#c" transform="matrix(1,0,0,1,1921.842081163675,1362.49993065136) translate(0 18.589501953125)"/><use xlink:href="#q" transform="matrix(1,0,0,1,1921.842081163675,1362.49993065136) translate(38.80933593750001 18.589501953125)"/><use xlink:href="#k" transform="matrix(1,0,0,1,1705,1392.49993065136) translate(0 18.589501953125)"/><use xlink:href="#c" transform="matrix(1,0,0,1,1921.842081163675,1392.49993065136) translate(0 18.589501953125)"/><use xlink:href="#q" transform="matrix(1,0,0,1,1921.842081163675,1392.49993065136) translate(38.80933593750001 18.589501953125)"/><path d="M1700 830a10 10 0 0 1 10-10h340a10 10 0 0 1 10 10v140a10 10 0 0 1-10 10h-340a10 10 0 0 1-10-10z" fill="#fff"/><path d="M1700 830a10 10 0 0 1 10-10h340a10 10 0 0 1 10 10v30h-360z" fill="#9391ff"/><path d="M1700 860h360v31h-360z" fill="#fff"/><path d="M1700 890h360v31h-360z" fill="#fff"/><path d="M1700 920h360v31h-360z" fill="#fff"/><path d="M1700 950h360v20a10 10 0 0 1-10 10h-340a10 10 0 0 1-10-10z" fill="#fff"/><path d="M1700.5 860h359-359zM1700 830a10 10 0 0 1 10-10h340a10 10 0 0 1 10 10v140a10 10 0 0 1-10 10h-340a10 10 0 0 1-10-10zM1899.42 860.5v119z" stroke="#282c33" fill="none"/><use xlink:href="#R" transform="matrix(1,0,0,1,1710,820) translate(0 26.305338541666668)"/><use xlink:href="#S" transform="matrix(1,0,0,1,1705,862.5) translate(0 18.589501953125)"/><use xlink:href="#c" transform="matrix(1,0,0,1,1904.4174758484592,862.5) translate(0 18.589501953125)"/><use xlink:href="#d" transform="matrix(1,0,0,1,1904.4174758484592,862.5) translate(38.80933593750001 18.589501953125)"/><use xlink:href="#T" transform="matrix(1,0,0,1,1705,892.5) translate(0 18.589501953125)"/><use xlink:href="#U" transform="matrix(1,0,0,1,1904.4174758484592,892.5) translate(0 18.589501953125)"/><use xlink:href="#k" transform="matrix(1,0,0,1,1705,922.5) translate(0 18.589501953125)"/><use xlink:href="#c" transform="matrix(1,0,0,1,1904.4174758484592,922.5) translate(0 18.589501953125)"/><use xlink:href="#q" transform="matrix(1,0,0,1,1904.4174758484592,922.5) translate(38.80933593750001 18.589501953125)"/><use xlink:href="#n" transform="matrix(1,0,0,1,1705,952.5) translate(0 18.589501953125)"/><use xlink:href="#o" transform="matrix(1,0,0,1,1904.4174758484592,952.5) translate(0 18.589501953125)"/><path d="M960 1050a10 10 0 0 1 10-10h239.5a10 10 0 0 1 10 10v140a10 10 0 0 1-10 10H970a10 10 0 0 1-10-10z" fill="#fff"/><path d="M960 1050a10 10 0 0 1 10-10h239.5a10 10 0 0 1 10 10v30H960z" fill="#1071e5"/><path d="M960 1080h259.5v31H960z" fill="#fff"/><path d="M960 1110h259.5v31H960z" fill="#fff"/><path d="M960 1140h259.5v31H960z" fill="#fff"/><path d="M960 1170h259.5v20a10 10 0 0 1-10 10H970a10 10 0 0 1-10-10z" fill="#fff"/><path d="M960.5 1080H1219 960.5zM960 1050a10 10 0 0 1 10-10h239.5a10 10 0 0 1 10 10v140a10 10 0 0 1-10 10H970a10 10 0 0 1-10-10zM1098.28 1080.5v119z" stroke="#282c33" fill="none"/><use xlink:href="#V" transform="matrix(1,0,0,1,970,1040) translate(0 26.089501953125)"/><use xlink:href="#Q" transform="matrix(1,0,0,1,965,1082.5) translate(0 18.589501953125)"/><use xlink:href="#c" transform="matrix(1,0,0,1,1103.2798345758615,1082.5) translate(0 18.589501953125)"/><use xlink:href="#d" transform="matrix(1,0,0,1,1103.2798345758615,1082.5) translate(38.80933593750001 18.589501953125)"/><use xlink:href="#W" transform="matrix(1,0,0,1,965,1112.5) translate(0 18.589501953125)"/><use xlink:href="#X" transform="matrix(1,0,0,1,1103.2798345758615,1112.5) translate(0 18.589501953125)"/><use xlink:href="#Y" transform="matrix(1,0,0,1,965,1142.5) translate(0 18.589501953125)"/><use xlink:href="#i" transform="matrix(1,0,0,1,1103.2798345758615,1142.5) translate(0 18.589501953125)"/><use xlink:href="#C" transform="matrix(1,0,0,1,965,1172.5) translate(0 18.589501953125)"/><use xlink:href="#c" transform="matrix(1,0,0,1,1103.2798345758615,1172.5) translate(0 18.589501953125)"/><use xlink:href="#q" transform="matrix(1,0,0,1,1103.2798345758615,1172.5) translate(38.80933593750001 18.589501953125)"/><path d="M320 1150a10 10 0 0 1 10-10h239.5a10 10 0 0 1 10 10v200a10 10 0 0 1-10 10H330a10 10 0 0 1-10-10z" fill="#fff"/><path d="M320 1150a10 10 0 0 1 10-10h239.5a10 10 0 0 1 10 10v30H320z" fill="#e81313"/><path d="M320 1180h259.5v31H320z" fill="#fff"/><path d="M320 1210h259.5v31H320z" fill="#fff"/><path d="M320 1240h259.5v31H320z" fill="#fff"/><path d="M320 1270h259.5v31H320z" fill="#fff"/><path d="M320 1300h259.5v31H320z" fill="#fff"/><path d="M320 1330h259.5v20a10 10 0 0 1-10 10H330a10 10 0 0 1-10-10z" fill="#fff"/><path d="M320.5 1180H579 320.5zM320 1150a10 10 0 0 1 10-10h239.5a10 10 0 0 1 10 10v200a10 10 0 0 1-10 10H330a10 10 0 0 1-10-10zM458.28 1180.5v179z" stroke="#282c33" fill="none"/><use xlink:href="#Z" transform="matrix(1,0,0,1,330,1140) translate(0 26.089501953125)"/><use xlink:href="#C" transform="matrix(1,0,0,1,325,1182.5) translate(0 18.589501953125)"/><use xlink:href="#c" transform="matrix(1,0,0,1,463.27983457586146,1182.5) translate(0 18.589501953125)"/><use xlink:href="#d" transform="matrix(1,0,0,1,463.27983457586146,1182.5) translate(38.80933593750001 18.589501953125)"/><use xlink:href="#aa" transform="matrix(1,0,0,1,325,1212.5) translate(0 18.589501953125)"/><use xlink:href="#m" transform="matrix(1,0,0,1,463.27983457586146,1212.5) translate(0 18.589501953125)"/><use xlink:href="#ab" transform="matrix(1,0,0,1,325,1242.5) translate(0 18.589501953125)"/><use xlink:href="#o" transform="matrix(1,0,0,1,463.27983457586146,1242.5) translate(0 18.589501953125)"/><use xlink:href="#b" transform="matrix(1,0,0,1,325,1272.5) translate(0 18.589501953125)"/><use xlink:href="#c" transform="matrix(1,0,0,1,463.27983457586146,1272.5) translate(0 18.589501953125)"/><use xlink:href="#ac" transform="matrix(1,0,0,1,463.27983457586146,1272.5) translate(38.80933593750001 18.589501953125)"/><use xlink:href="#ad" transform="matrix(1,0,0,1,325,1302.5) translate(0 18.589501953125)"/><use xlink:href="#U" transform="matrix(1,0,0,1,463.27983457586146,1302.5) translate(0 18.589501953125)"/><use xlink:href="#ae" transform="matrix(1,0,0,1,325,1332.5) translate(0 18.589501953125)"/><use xlink:href="#o" transform="matrix(1,0,0,1,463.27983457586146,1332.5) translate(0 18.589501953125)"/><path d="M960 1230a10 10 0 0 1 10-10h441.47a10 10 0 0 1 10 10v230a10 10 0 0 1-10 10H970a10 10 0 0 1-10-10z" fill="#fff"/><path d="M960 1230a10 10 0 0 1 10-10h441.47a10 10 0 0 1 10 10v30H960z" fill="#ba23f6"/><path d="M960 1260h461.47v31H960z" fill="#fff"/><path d="M960 1290h461.47v31H960z" fill="#fff"/><path d="M960 1320h461.47v31H960z" fill="#fff"/><path d="M960 1350h461.47v31H960z" fill="#fff"/><path d="M960 1380h461.47v31H960z" fill="#fff"/><path d="M960 1410h461.47v31H960z" fill="#fff"/><path d="M960 1440h461.47v20a10 10 0 0 1-10 10H970a10 10 0 0 1-10-10z" fill="#fff"/><path d="M960.5 1260h460.47H960.5zM960 1230a10 10 0 0 1 10-10h441.47a10 10 0 0 1 10 10v230a10 10 0 0 1-10 10H970a10 10 0 0 1-10-10zM1098.28 1260.5v209z" stroke="#282c33" fill="none"/><use xlink:href="#af" transform="matrix(1,0,0,1,970,1220) translate(0 26.089501953125)"/><use xlink:href="#p" transform="matrix(1,0,0,1,965,1262.5) translate(0 18.589501953125)"/><use xlink:href="#c" transform="matrix(1,0,0,1,1103.2798345758615,1262.5) translate(0 18.589501953125)"/><use xlink:href="#d" transform="matrix(1,0,0,1,1103.2798345758615,1262.5) translate(38.80933593750001 18.589501953125)"/><use xlink:href="#C" transform="matrix(1,0,0,1,965,1292.5) translate(0 18.589501953125)"/><use xlink:href="#c" transform="matrix(1,0,0,1,1103.2798345758615,1292.5) translate(0 18.589501953125)"/><use xlink:href="#q" transform="matrix(1,0,0,1,1103.2798345758615,1292.5) translate(38.80933593750001 18.589501953125)"/><use xlink:href="#n" transform="matrix(1,0,0,1,965,1322.5) translate(0 18.589501953125)"/><use xlink:href="#o" transform="matrix(1,0,0,1,1103.2798345758615,1322.5) translate(0 18.589501953125)"/><use xlink:href="#b" transform="matrix(1,0,0,1,965,1352.5) translate(0 18.589501953125)"/><use xlink:href="#c" transform="matrix(1,0,0,1,1103.2798345758615,1352.5) translate(0 18.589501953125)"/><use xlink:href="#q" transform="matrix(1,0,0,1,1103.2798345758615,1352.5) translate(38.80933593750001 18.589501953125)"/><use xlink:href="#ag" transform="matrix(1,0,0,1,965,1382.5) translate(0 18.589501953125)"/><use xlink:href="#i" transform="matrix(1,0,0,1,1103.2798345758615,1382.5) translate(0 18.589501953125)"/><use xlink:href="#ah" transform="matrix(1,0,0,1,965,1412.5) translate(0 18.589501953125)"/><use xlink:href="#U" transform="matrix(1,0,0,1,1103.2798345758615,1412.5) translate(0 18.589501953125)"/><use xlink:href="#ai" transform="matrix(1,0,0,1,965,1442.5) translate(0 18.589501953125)"/><use xlink:href="#aj" transform="matrix(1,0,0,1,1103.2798345758615,1442.5) translate(0 18.589501953125)"/><use xlink:href="#ak" transform="matrix(1,0,0,1,1103.2798345758615,1442.5) translate(48.920361328125004 18.589501953125)"/><use xlink:href="#al" transform="matrix(1,0,0,1,1103.2798345758615,1442.5) translate(129.22004882812502 18.589501953125)"/><use xlink:href="#am" transform="matrix(1,0,0,1,1103.2798345758615,1442.5) translate(225.066357421875 18.589501953125)"/><path d="M620.5 1444h74a6 6 0 0 0 6-6v-147a6 6 0 0 0-6-6h-95.1M600.5 1444h20m0 10v-20M580.22 1285h20m-20 10l20-10m-20-10l20 10" stroke="#008a0e" fill="none"/><path d="M620.5 1444H774a6 6 0 0 0 6-6v-67a6 6 0 0 1 6-6h154.1M600.5 1444h20m0 10v-20M959.28 1365h-20m20-10l-20 10m20 10l-20-10" stroke="#008a0e" fill="none"/><path d="M600 1195h15.13a4.88 4.88 0 0 0 4.87-4.88 4.88 4.88 0 0 1 4.88-4.87H834a6 6 0 0 0 6-6V1011.2a6 6 0 0 1 6-6h67.5a6 6 0 0 0 6-6V981a6 6 0 0 1 6-6h14.6M580 1195h20m0 10v-20M959.28 975h-20m20-10l-20 10m20 10l-20-10M600 1195h14a6 6 0 0 1 6 6v97.9a6 6 0 0 0 6 6h293.46a.04.04 0 0 1 .04.06.04.04 0 0 0 .04.04h20.55M580 1195h20m0 10v-20M959.28 1305h-20m20-10l-20 10m20 10l-20-10" stroke="#e81313" fill="none"/><path d="M939.5 1275H906a6 6 0 0 1-6-6v-218a6 6 0 0 0-6-6H620.5M959.5 1275h-20m0-10v20M600.5 1045h20m0 10v-20" stroke="#ba23f6" fill="none"/><path d="M620.5 955h117.67a6 6 0 0 1 6 6v583a6 6 0 0 0 6 6h903.33a6 6 0 0 0 6-6v-133a6 6 0 0 1 6-6h14.6M600.5 955h20m0 10v-20M1699.28 1405h-20m20-10l-20 10m20 10l-20-10M620.5 955H894a6 6 0 0 0 6-6V766a6 6 0 0 1 6-6h728a6 6 0 0 1 6 6v163a6 6 0 0 0 6 6h34.1M600.5 955h20m0 10v-20M1699.28 935h-20m20-10l-20 10m20 10l-20-10" stroke="#fcce14" fill="none"/><path d="M1360.5 855H1614a6 6 0 0 1 6 6v448a6 6 0 0 0 6 6h54.1M1340.5 855h20m0 10v-20M1699.28 1315h-20m20-10l-20 10m20 10l-20-10" stroke="#008a0e" fill="none"/><path d="M1679.5 1075H1646a6 6 0 0 0-6 6v258a6 6 0 0 0 6 6h34.1M1699.5 1075h-20m0-10v20M1699.28 1345h-20m20-10l-20 10m20 10l-20-10" stroke="#82755b" fill="none"/><path d="M1240 1094.9h294a6 6 0 0 1 6 6V1369a6 6 0 0 0 6 6h134.1M1220 1094.9h20m0 10v-20M1699.28 1375h-20m20-10l-20 10m20 10l-20-10" stroke="#1071e5" fill="none"/><path d="M600 1195h15.13a4.88 4.88 0 0 0 4.87-4.88 4.88 4.88 0 0 1 4.88-4.87h315.2M580 1195h20m0 10v-20M959.28 1185.25h-20m20-10l-20 10m20 10l-20-10" stroke="#e81313" fill="none"/><path d="M600 1195h14a6 6 0 0 1 6 6v303a6 6 0 0 0 6 6h852.17a6 6 0 0 0 6-6v-272.66a6 6 0 0 1 6-6h189.92M580 1195h20m0 10v-20M1699.28 1225.34h-20m20-10l-20 10m20 10l-20-10" stroke="#e81313" fill="none"/><defs><path d="M763 24c-353 0-583-224-583-531v-983h190v968c0 214 149 370 393 370 243 0 391-156 391-370v-968h190v983c0 307-230 531-581 531" id="an"/><path d="M538 24C308 24 148-78 108-271l171-41c32 123 123 178 257 178 156 0 256-77 256-169 0-77-54-128-164-154l-186-44c-203-48-300-148-300-305 0-192 176-326 414-326 230 0 351 112 402 269l-163 42c-31-80-94-158-238-158-133 0-233 69-233 162 0 83 57 129 188 160l169 40c203 48 298 149 298 302 0 196-179 339-441 339" id="ao"/><path d="M628 24c-324 0-524-230-524-574 0-343 198-582 503-582 237 0 487 146 487 559v75H286c9 234 145 362 343 362 132 0 231-58 273-172l174 48C1024-91 857 24 628 24zM287-650h624c-17-190-120-322-304-322-192 0-309 151-320 322" id="ap"/><path d="M158 0v-1118h174v172h12c41-113 157-188 290-188 26 0 70 2 91 3v181c-11-2-60-10-108-10-161 0-279 109-279 260V0H158" id="aq"/><g id="a"><use transform="matrix(0.008173828125000001,0,0,0.008173828125000001,0,0)" xlink:href="#an"/><use transform="matrix(0.008173828125000001,0,0,0.008173828125000001,12.456914062500001,0)" xlink:href="#ao"/><use transform="matrix(0.008173828125000001,0,0,0.008173828125000001,21.292822265625002,0)" xlink:href="#ap"/><use transform="matrix(0.008173828125000001,0,0,0.008173828125000001,31.052373046875005,0)" xlink:href="#aq"/><use transform="matrix(0.008173828125000001,0,0,0.008173828125000001,37.35439453125001,0)" xlink:href="#ao"/></g><path d="M537 14c-226 0-379-139-379-422v-710h180v695c0 172 97 275 253 275 160 0 281-109 281-300v-670h181V0H879v-209C806-46 684 14 537 14" id="ar"/><path d="M934 0v166H0V0h934" id="as"/><path d="M158 0v-1118h180V0H158zm91-1301c-68 0-125-53-125-119s57-119 125-119c69 0 126 53 126 119s-57 119-126 119" id="at"/><path d="M577 24c-279 0-473-224-473-580 0-354 195-576 474-576 218 0 287 134 324 193h14v-551h180V0H922v-173h-20C865-111 790 24 577 24zm27-161c203 0 314-172 314-421 0-247-108-413-314-413-212 0-317 181-317 413 0 235 108 421 317 421" id="au"/><g id="b"><use transform="matrix(0.008173828125000001,0,0,0.008173828125000001,0,0)" xlink:href="#ar"/><use transform="matrix(0.008173828125000001,0,0,0.008173828125000001,9.898505859375001,0)" xlink:href="#ao"/><use transform="matrix(0.008173828125000001,0,0,0.008173828125000001,18.7344140625,0)" xlink:href="#ap"/><use transform="matrix(0.008173828125000001,0,0,0.008173828125000001,28.49396484375,0)" xlink:href="#aq"/><use transform="matrix(0.008173828125000001,0,0,0.008173828125000001,34.795986328125,0)" xlink:href="#as"/><use transform="matrix(0.008173828125000001,0,0,0.008173828125000001,42.9943359375,0)" xlink:href="#at"/><use transform="matrix(0.008173828125000001,0,0,0.008173828125000001,47.0485546875,0)" xlink:href="#au"/></g><g id="c"><use transform="matrix(0.008173828125000001,0,0,0.008173828125000001,0,0)" xlink:href="#ar"/><use transform="matrix(0.008173828125000001,0,0,0.008173828125000001,9.898505859375001,0)" xlink:href="#ar"/><use transform="matrix(0.008173828125000001,0,0,0.008173828125000001,19.797011718750003,0)" xlink:href="#at"/><use transform="matrix(0.008173828125000001,0,0,0.008173828125000001,23.851230468750003,0)" xlink:href="#au"/></g><path d="M180 0v-1490h510c348 0 508 209 508 474 0 266-160 477-507 477H370V0H180zm190-706h312c236 0 327-133 327-310 0-176-91-307-329-307H370v617" id="av"/><path d="M180 0v-1490h190c0 262 1 526-3 784 217-279 467-523 702-784h249L716-845 1319 0h-225L585-716 370-489V0H180" id="aw"/><g id="d"><use transform="matrix(0.008173828125000001,0,0,0.008173828125000001,0,0)" xlink:href="#av"/><use transform="matrix(0.008173828125000001,0,0,0.008173828125000001,10.691367187500001,0)" xlink:href="#aw"/></g><path d="M338-670V0H158v-1118h173l1 207c72-158 192-221 342-221 226 0 378 139 378 422V0H872v-695c0-172-96-275-252-275-161 0-282 109-282 300" id="ax"/><path d="M471 26C259 26 90-98 90-318c0-256 228-303 435-329 202-27 287-16 287-108 0-139-79-219-234-219-161 0-248 86-283 164l-173-57c86-203 278-265 451-265 150 0 419 46 419 395V0H815v-152h-12C765-73 660 26 471 26zm31-159c199 0 310-134 310-271v-155c-30 35-226 55-295 64-131 17-246 59-246 186 0 116 97 176 231 176" id="ay"/><path d="M158 0v-1118h175l1 205c55-151 181-225 313-225 147 0 245 90 285 228 53-141 190-228 352-228 194 0 352 125 352 384V0h-181v-749c0-161-105-225-225-225-151 0-243 103-243 244V0H807v-767c0-124-93-207-219-207-131 0-250 92-250 270V0H158" id="az"/><g id="e"><use transform="matrix(0.008173828125000001,0,0,0.008173828125000001,0,0)" xlink:href="#ax"/><use transform="matrix(0.008173828125000001,0,0,0.008173828125000001,9.89033203125,0)" xlink:href="#ay"/><use transform="matrix(0.008173828125000001,0,0,0.008173828125000001,19.290234375000004,0)" xlink:href="#az"/><use transform="matrix(0.008173828125000001,0,0,0.008173828125000001,33.95408203125001,0)" xlink:href="#ap"/></g><path d="M481 0L54-1118h197c107 314 236 620 325 951 87-331 217-637 324-951h197L670 0H481" id="aA"/><path d="M613 24c-304 0-509-231-509-576 0-350 205-580 509-580 216 0 392 114 453 309l-173 49c-33-115-133-197-280-197-223 0-326 196-326 419 0 220 103 415 326 415 150 0 252-85 285-206l172 49C1010-95 832 24 613 24" id="aB"/><path d="M338-670V0H158v-1490h180v566c73-149 190-208 336-208 226 0 379 139 379 422V0H872v-695c0-172-96-275-252-275-161 0-282 109-282 300" id="aC"/><path d="M218-607c0-325 108-727 258-974h175c-155 315-250 682-250 974 0 265 78 531 250 886H476C306-10 218-315 218-607" id="aD"/><path d="M154 0v-137l495-537c165-179 249-281 249-418 0-156-121-253-280-253-170 0-278 110-278 278H158c0-264 200-443 465-443 266 0 455 183 455 416 0 161-73 288-336 568L416-179v12h687V0H154" id="aE"/><path d="M626 20c-262 0-458-168-468-396h184c12 133 134 229 284 229 180 0 311-137 311-326 0-192-136-335-323-335-92 0-196 33-255 78l-178-22 88-738h784v167H429l-51 435h8c61-51 160-87 263-87 273 0 474 211 474 499 0 286-210 496-497 496" id="aF"/><path d="M96 279C273-86 346-350 346-607c0-292-95-659-250-974h175c150 246 258 650 258 974 0 297-91 602-258 886H96" id="aG"/><g id="f"><use transform="matrix(0.008173828125000001,0,0,0.008173828125000001,0,0)" xlink:href="#aA"/><use transform="matrix(0.008173828125000001,0,0,0.008173828125000001,9.326337890625,0)" xlink:href="#ay"/><use transform="matrix(0.008173828125000001,0,0,0.008173828125000001,18.726240234375002,0)" xlink:href="#aq"/><use transform="matrix(0.008173828125000001,0,0,0.008173828125000001,24.7503515625,0)" xlink:href="#aB"/><use transform="matrix(0.008173828125000001,0,0,0.008173828125000001,34.31373046875,0)" xlink:href="#aC"/><use transform="matrix(0.008173828125000001,0,0,0.008173828125000001,44.212236328125,0)" xlink:href="#ay"/><use transform="matrix(0.008173828125000001,0,0,0.008173828125000001,53.612138671875,0)" xlink:href="#aq"/><use transform="matrix(0.008173828125000001,0,0,0.008173828125000001,59.914160156250006,0)" xlink:href="#aD"/><use transform="matrix(0.008173828125000001,0,0,0.008173828125000001,66.020009765625,0)" xlink:href="#aE"/><use transform="matrix(0.008173828125000001,0,0,0.008173828125000001,76.22912109375001,0)" xlink:href="#aF"/><use transform="matrix(0.008173828125000001,0,0,0.008173828125000001,86.40553710937502,0)" xlink:href="#aG"/></g><path d="M338-1490V0H158v-1490h180" id="aH"/><g id="g"><use transform="matrix(0.008173828125000001,0,0,0.008173828125000001,0,0)" xlink:href="#ap"/><use transform="matrix(0.008173828125000001,0,0,0.008173828125000001,9.75955078125,0)" xlink:href="#az"/><use transform="matrix(0.008173828125000001,0,0,0.008173828125000001,24.42339843750001,0)" xlink:href="#ay"/><use transform="matrix(0.008173828125000001,0,0,0.008173828125000001,33.823300781250005,0)" xlink:href="#at"/><use transform="matrix(0.008173828125000001,0,0,0.008173828125000001,37.87751953125,0)" xlink:href="#aH"/></g><path d="M158 418v-1536h174v179h20c37-59 106-193 324-193 279 0 474 222 474 576 0 356-194 580-473 580-213 0-288-135-325-197h-14v591H158zm492-555c209 0 317-186 317-421 0-232-105-413-317-413-206 0-314 166-314 413 0 249 111 421 314 421" id="aI"/><path d="M409 0L70-1118h191c89 329 165 560 243 925 75-353 154-601 240-925h192c85 325 161 564 235 922 77-354 157-598 244-922h191L1267 0h-179c-86-307-176-590-250-913C763-588 675-308 588 0H409" id="aJ"/><path d="M613 24c-304 0-509-231-509-576 0-350 205-580 509-580 305 0 511 230 511 580 0 345-206 576-511 576zm0-161c226 0 329-195 329-415 0-222-103-419-329-419-223 0-326 196-326 419 0 220 103 415 326 415" id="aK"/><g id="h"><use transform="matrix(0.008173828125000001,0,0,0.008173828125000001,0,0)" xlink:href="#aI"/><use transform="matrix(0.008173828125000001,0,0,0.008173828125000001,10.413457031250001,0)" xlink:href="#ay"/><use transform="matrix(0.008173828125000001,0,0,0.008173828125000001,19.813359375000005,0)" xlink:href="#ao"/><use transform="matrix(0.008173828125000001,0,0,0.008173828125000001,28.649267578125006,0)" xlink:href="#ao"/><use transform="matrix(0.008173828125000001,0,0,0.008173828125000001,37.48517578125001,0)" xlink:href="#aJ"/><use transform="matrix(0.008173828125000001,0,0,0.008173828125000001,50.88208007812501,0)" xlink:href="#aK"/><use transform="matrix(0.008173828125000001,0,0,0.008173828125000001,60.91954101562501,0)" xlink:href="#aq"/><use transform="matrix(0.008173828125000001,0,0,0.008173828125000001,66.94365234375,0)" xlink:href="#au"/><use transform="matrix(0.008173828125000001,0,0,0.008173828125000001,77.1936328125,0)" xlink:href="#as"/><use transform="matrix(0.008173828125000001,0,0,0.008173828125000001,85.391982421875,0)" xlink:href="#aC"/><use transform="matrix(0.008173828125000001,0,0,0.008173828125000001,95.29048828125,0)" xlink:href="#ay"/><use transform="matrix(0.008173828125000001,0,0,0.008173828125000001,104.690390625,0)" xlink:href="#ao"/><use transform="matrix(0.008173828125000001,0,0,0.008173828125000001,113.52629882812501,0)" xlink:href="#aC"/></g><path d="M646 20c-332 0-524-278-524-764 0-483 194-766 524-766s524 283 524 766c0 485-191 764-524 764zm0-166c218 0 341-220 341-598 0-380-123-601-341-601s-341 222-341 601c0 378 123 598 341 598" id="aL"/><g id="i"><use transform="matrix(0.008173828125000001,0,0,0.008173828125000001,0,0)" xlink:href="#aA"/><use transform="matrix(0.008173828125000001,0,0,0.008173828125000001,9.326337890625,0)" xlink:href="#ay"/><use transform="matrix(0.008173828125000001,0,0,0.008173828125000001,18.726240234375002,0)" xlink:href="#aq"/><use transform="matrix(0.008173828125000001,0,0,0.008173828125000001,24.7503515625,0)" xlink:href="#aB"/><use transform="matrix(0.008173828125000001,0,0,0.008173828125000001,34.31373046875,0)" xlink:href="#aC"/><use transform="matrix(0.008173828125000001,0,0,0.008173828125000001,44.212236328125,0)" xlink:href="#ay"/><use transform="matrix(0.008173828125000001,0,0,0.008173828125000001,53.612138671875,0)" xlink:href="#aq"/><use transform="matrix(0.008173828125000001,0,0,0.008173828125000001,59.914160156250006,0)" xlink:href="#aD"/><use transform="matrix(0.008173828125000001,0,0,0.008173828125000001,66.020009765625,0)" xlink:href="#aF"/><use transform="matrix(0.008173828125000001,0,0,0.008173828125000001,76.19642578125001,0)" xlink:href="#aL"/><use transform="matrix(0.008173828125000001,0,0,0.008173828125000001,86.75701171875002,0)" xlink:href="#aG"/></g><path d="M657 26c-323 0-524-166-541-416h195c15 169 171 246 346 246 202 0 356-106 356-265 5-203-294-238-475-293-239-73-380-191-380-389 0-252 224-419 512-419 294 0 499 171 508 396H992c-17-145-151-228-328-228-193 0-321 102-321 242 0 156 175 211 284 241l149 41c160 44 422 134 422 412 0 244-197 432-541 432" id="aM"/><g id="j"><use transform="matrix(0.008173828125000001,0,0,0.008173828125000001,0,0)" xlink:href="#aM"/><use transform="matrix(0.008173828125000001,0,0,0.008173828125000001,10.740410156250002,0)" xlink:href="#aB"/><use transform="matrix(0.008173828125000001,0,0,0.008173828125000001,20.3037890625,0)" xlink:href="#aC"/><use transform="matrix(0.008173828125000001,0,0,0.008173828125000001,30.202294921875,0)" xlink:href="#ap"/><use transform="matrix(0.008173828125000001,0,0,0.008173828125000001,39.961845703125,0)" xlink:href="#au"/><use transform="matrix(0.008173828125000001,0,0,0.008173828125000001,50.211826171875,0)" xlink:href="#ar"/><use transform="matrix(0.008173828125000001,0,0,0.008173828125000001,60.11033203125,0)" xlink:href="#aH"/><use transform="matrix(0.008173828125000001,0,0,0.008173828125000001,64.16455078125,0)" xlink:href="#ap"/><use transform="matrix(0.008173828125000001,0,0,0.008173828125000001,73.9241015625,0)" xlink:href="#ao"/></g><g id="k"><use transform="matrix(0.008173828125000001,0,0,0.008173828125000001,0,0)" xlink:href="#ao"/><use transform="matrix(0.008173828125000001,0,0,0.008173828125000001,8.835908203125001,0)" xlink:href="#aB"/><use transform="matrix(0.008173828125000001,0,0,0.008173828125000001,18.399287109375003,0)" xlink:href="#aC"/><use transform="matrix(0.008173828125000001,0,0,0.008173828125000001,28.297792968750002,0)" xlink:href="#ap"/><use transform="matrix(0.008173828125000001,0,0,0.008173828125000001,38.05734375,0)" xlink:href="#au"/><use transform="matrix(0.008173828125000001,0,0,0.008173828125000001,48.307324218750004,0)" xlink:href="#ar"/><use transform="matrix(0.008173828125000001,0,0,0.008173828125000001,58.205830078125004,0)" xlink:href="#aH"/><use transform="matrix(0.008173828125000001,0,0,0.008173828125000001,62.26004882812501,0)" xlink:href="#ap"/><use transform="matrix(0.008173828125000001,0,0,0.008173828125000001,72.019599609375,0)" xlink:href="#as"/><use transform="matrix(0.008173828125000001,0,0,0.008173828125000001,80.21794921875001,0)" xlink:href="#at"/><use transform="matrix(0.008173828125000001,0,0,0.008173828125000001,84.27216796875001,0)" xlink:href="#au"/></g><g id="l"><use transform="matrix(0.008173828125000001,0,0,0.008173828125000001,0,0)" xlink:href="#ao"/><use transform="matrix(0.008173828125000001,0,0,0.008173828125000001,8.835908203125001,0)" xlink:href="#aB"/><use transform="matrix(0.008173828125000001,0,0,0.008173828125000001,18.399287109375003,0)" xlink:href="#aC"/><use transform="matrix(0.008173828125000001,0,0,0.008173828125000001,28.297792968750002,0)" xlink:href="#ap"/><use transform="matrix(0.008173828125000001,0,0,0.008173828125000001,38.05734375,0)" xlink:href="#au"/><use transform="matrix(0.008173828125000001,0,0,0.008173828125000001,48.307324218750004,0)" xlink:href="#ar"/><use transform="matrix(0.008173828125000001,0,0,0.008173828125000001,58.205830078125004,0)" xlink:href="#aH"/><use transform="matrix(0.008173828125000001,0,0,0.008173828125000001,62.26004882812501,0)" xlink:href="#ap"/><use transform="matrix(0.008173828125000001,0,0,0.008173828125000001,72.019599609375,0)" xlink:href="#as"/><use transform="matrix(0.008173828125000001,0,0,0.008173828125000001,80.21794921875001,0)" xlink:href="#ax"/><use transform="matrix(0.008173828125000001,0,0,0.008173828125000001,90.10828125,0)" xlink:href="#ay"/><use transform="matrix(0.008173828125000001,0,0,0.008173828125000001,99.50818359375002,0)" xlink:href="#az"/><use transform="matrix(0.008173828125000001,0,0,0.008173828125000001,114.17203125,0)" xlink:href="#ap"/></g><path d="M653-1490V0H466v-1314h-10L96-1047v-204l324-239h233" id="aN"/><g id="m"><use transform="matrix(0.008173828125000001,0,0,0.008173828125000001,0,0)" xlink:href="#aA"/><use transform="matrix(0.008173828125000001,0,0,0.008173828125000001,9.326337890625,0)" xlink:href="#ay"/><use transform="matrix(0.008173828125000001,0,0,0.008173828125000001,18.726240234375002,0)" xlink:href="#aq"/><use transform="matrix(0.008173828125000001,0,0,0.008173828125000001,24.7503515625,0)" xlink:href="#aB"/><use transform="matrix(0.008173828125000001,0,0,0.008173828125000001,34.31373046875,0)" xlink:href="#aC"/><use transform="matrix(0.008173828125000001,0,0,0.008173828125000001,44.212236328125,0)" xlink:href="#ay"/><use transform="matrix(0.008173828125000001,0,0,0.008173828125000001,53.612138671875,0)" xlink:href="#aq"/><use transform="matrix(0.008173828125000001,0,0,0.008173828125000001,59.914160156250006,0)" xlink:href="#aD"/><use transform="matrix(0.008173828125000001,0,0,0.008173828125000001,66.020009765625,0)" xlink:href="#aN"/><use transform="matrix(0.008173828125000001,0,0,0.008173828125000001,72.82880859375001,0)" xlink:href="#aL"/><use transform="matrix(0.008173828125000001,0,0,0.008173828125000001,83.38939453125002,0)" xlink:href="#aG"/></g><path d="M598-1118v154H368v674c0 100 37 144 132 144 23 0 62-6 92-12L629-6c-37 13-88 20-134 20-193 0-307-107-307-290v-688H20v-154h168v-266h180v266h230" id="aO"/><g id="n"><use transform="matrix(0.008173828125000001,0,0,0.008173828125000001,0,0)" xlink:href="#aB"/><use transform="matrix(0.008173828125000001,0,0,0.008173828125000001,9.563378906250001,0)" xlink:href="#aq"/><use transform="matrix(0.008173828125000001,0,0,0.008173828125000001,15.587490234375002,0)" xlink:href="#ap"/><use transform="matrix(0.008173828125000001,0,0,0.008173828125000001,25.510517578125004,0)" xlink:href="#ay"/><use transform="matrix(0.008173828125000001,0,0,0.008173828125000001,34.910419921875004,0)" xlink:href="#aO"/><use transform="matrix(0.008173828125000001,0,0,0.008173828125000001,40.223408203125004,0)" xlink:href="#ap"/><use transform="matrix(0.008173828125000001,0,0,0.008173828125000001,49.982958984375,0)" xlink:href="#au"/><use transform="matrix(0.008173828125000001,0,0,0.008173828125000001,60.232939453125006,0)" xlink:href="#as"/><use transform="matrix(0.008173828125000001,0,0,0.008173828125000001,67.86729492187499,0)" xlink:href="#ay"/><use transform="matrix(0.008173828125000001,0,0,0.008173828125000001,77.267197265625,0)" xlink:href="#aO"/></g><g id="o"><use transform="matrix(0.008173828125000001,0,0,0.008173828125000001,0,0)" xlink:href="#aO"/><use transform="matrix(0.008173828125000001,0,0,0.008173828125000001,5.4764648437500005,0)" xlink:href="#at"/><use transform="matrix(0.008173828125000001,0,0,0.008173828125000001,9.530683593750002,0)" xlink:href="#az"/><use transform="matrix(0.008173828125000001,0,0,0.008173828125000001,24.194531250000004,0)" xlink:href="#ap"/></g><g id="p"><use transform="matrix(0.008173828125000001,0,0,0.008173828125000001,0,0)" xlink:href="#aq"/><use transform="matrix(0.008173828125000001,0,0,0.008173828125000001,6.302021484375,0)" xlink:href="#ar"/><use transform="matrix(0.008173828125000001,0,0,0.008173828125000001,16.200527343750004,0)" xlink:href="#ax"/><use transform="matrix(0.008173828125000001,0,0,0.008173828125000001,26.090859375000004,0)" xlink:href="#as"/><use transform="matrix(0.008173828125000001,0,0,0.008173828125000001,34.289208984375,0)" xlink:href="#at"/><use transform="matrix(0.008173828125000001,0,0,0.008173828125000001,38.343427734375,0)" xlink:href="#au"/></g><path d="M180 0v-1490h901v168H370v510h643v168H370V0H180" id="aP"/><g id="q"><use transform="matrix(0.008173828125000001,0,0,0.008173828125000001,0,0)" xlink:href="#aP"/><use transform="matrix(0.008173828125000001,0,0,0.008173828125000001,9.882158203125002,0)" xlink:href="#aw"/></g><g id="r"><use transform="matrix(0.008173828125000001,0,0,0.008173828125000001,0,0)" xlink:href="#az"/><use transform="matrix(0.008173828125000001,0,0,0.008173828125000001,14.663847656250002,0)" xlink:href="#ap"/><use transform="matrix(0.008173828125000001,0,0,0.008173828125000001,24.42339843750001,0)" xlink:href="#aO"/><use transform="matrix(0.008173828125000001,0,0,0.008173828125000001,29.899863281250006,0)" xlink:href="#aq"/><use transform="matrix(0.008173828125000001,0,0,0.008173828125000001,36.46344726562501,0)" xlink:href="#at"/><use transform="matrix(0.008173828125000001,0,0,0.008173828125000001,40.51766601562501,0)" xlink:href="#aB"/><use transform="matrix(0.008173828125000001,0,0,0.008173828125000001,50.08104492187501,0)" xlink:href="#ao"/></g><path d="M157-1118h181V80c1 225-123 350-364 338V252c126 9 184-48 183-172v-1198zm91-183c-68 0-125-53-125-119s57-119 125-119c69 0 126 53 126 119s-57 119-126 119" id="aQ"/><g id="s"><use transform="matrix(0.008173828125000001,0,0,0.008173828125000001,0,0)" xlink:href="#aQ"/><use transform="matrix(0.008173828125000001,0,0,0.008173828125000001,4.05421875,0)" xlink:href="#ao"/><use transform="matrix(0.008173828125000001,0,0,0.008173828125000001,12.890126953125002,0)" xlink:href="#aK"/><use transform="matrix(0.008173828125000001,0,0,0.008173828125000001,22.927587890625002,0)" xlink:href="#ax"/></g><path d="M140 405l46-156c120 36 205 19 263-150l32-93L54-1118h197c107 313 237 620 324 950 87-331 219-637 326-950h196L606 167c-68 178-176 259-334 259-64 0-113-12-132-21" id="aR"/><path d="M677 24c-213 0-288-135-325-197h-20V0H158v-1490h180v551h14c37-59 106-193 324-193 279 0 474 222 474 576 0 356-194 580-473 580zm-27-161c209 0 317-186 317-421 0-232-105-413-317-413-206 0-314 166-314 413 0 249 111 421 314 421" id="aS"/><g id="t"><use transform="matrix(0.008173828125000001,0,0,0.008173828125000001,0,0)" xlink:href="#aD"/><use transform="matrix(0.008173828125000001,0,0,0.008173828125000001,6.105849609375,0)" xlink:href="#az"/><use transform="matrix(0.008173828125000001,0,0,0.008173828125000001,20.769697265625002,0)" xlink:href="#ay"/><use transform="matrix(0.008173828125000001,0,0,0.008173828125000001,29.924384765625007,0)" xlink:href="#aR"/><use transform="matrix(0.008173828125000001,0,0,0.008173828125000001,39.41419921875001,0)" xlink:href="#aS"/><use transform="matrix(0.008173828125000001,0,0,0.008173828125000001,49.66417968750002,0)" xlink:href="#ap"/></g><g id="u"><use transform="matrix(0.008173828125000001,0,0,0.008173828125000001,0,0)" xlink:href="#ay"/><use transform="matrix(0.008173828125000001,0,0,0.008173828125000001,9.399902343750002,0)" xlink:href="#ax"/><use transform="matrix(0.008173828125000001,0,0,0.008173828125000001,19.290234375000004,0)" xlink:href="#aK"/><use transform="matrix(0.008173828125000001,0,0,0.008173828125000001,29.327695312500005,0)" xlink:href="#aO"/><use transform="matrix(0.008173828125000001,0,0,0.008173828125000001,34.804160156250006,0)" xlink:href="#aC"/><use transform="matrix(0.008173828125000001,0,0,0.008173828125000001,44.702666015625006,0)" xlink:href="#ap"/><use transform="matrix(0.008173828125000001,0,0,0.008173828125000001,54.462216796875005,0)" xlink:href="#aq"/></g><g id="v"><use transform="matrix(0.008173828125000001,0,0,0.008173828125000001,0,0)" xlink:href="#aO"/><use transform="matrix(0.008173828125000001,0,0,0.008173828125000001,5.558203125,0)" xlink:href="#ay"/><use transform="matrix(0.008173828125000001,0,0,0.008173828125000001,14.958105468750002,0)" xlink:href="#aS"/><use transform="matrix(0.008173828125000001,0,0,0.008173828125000001,25.2080859375,0)" xlink:href="#aH"/><use transform="matrix(0.008173828125000001,0,0,0.008173828125000001,29.262304687500002,0)" xlink:href="#ap"/><use transform="matrix(0.008173828125000001,0,0,0.008173828125000001,38.833857421875,0)" xlink:href="#aG"/></g><path d="M783 20c-382 0-661-292-661-764 0-473 279-766 661-766 302 0 548 182 601 489h-190c-42-204-217-313-411-313-268 0-476 208-476 590 0 381 209 588 476 588 195 0 369-110 411-313h190c-52 303-296 489-601 489" id="aT"/><g id="w"><use transform="matrix(0.008173828125000001,0,0,0.008173828125000001,0,0)" xlink:href="#aT"/><use transform="matrix(0.008173828125000001,0,0,0.008173828125000001,12.228046875000002,0)" xlink:href="#aK"/><use transform="matrix(0.008173828125000001,0,0,0.008173828125000001,22.265507812500008,0)" xlink:href="#ar"/><use transform="matrix(0.008173828125000001,0,0,0.008173828125000001,32.164013671875004,0)" xlink:href="#aq"/><use transform="matrix(0.008173828125000001,0,0,0.008173828125000001,38.46603515625,0)" xlink:href="#ao"/><use transform="matrix(0.008173828125000001,0,0,0.008173828125000001,47.301943359375,0)" xlink:href="#ap"/><use transform="matrix(0.008173828125000001,0,0,0.008173828125000001,57.061494140625,0)" xlink:href="#ao"/></g><g id="x"><use transform="matrix(0.008173828125000001,0,0,0.008173828125000001,0,0)" xlink:href="#aB"/><use transform="matrix(0.008173828125000001,0,0,0.008173828125000001,9.563378906250001,0)" xlink:href="#aK"/><use transform="matrix(0.008173828125000001,0,0,0.008173828125000001,19.600839843750002,0)" xlink:href="#ar"/><use transform="matrix(0.008173828125000001,0,0,0.008173828125000001,29.499345703125005,0)" xlink:href="#aq"/><use transform="matrix(0.008173828125000001,0,0,0.008173828125000001,35.801367187500006,0)" xlink:href="#ao"/><use transform="matrix(0.008173828125000001,0,0,0.008173828125000001,44.63727539062501,0)" xlink:href="#ap"/><use transform="matrix(0.008173828125000001,0,0,0.008173828125000001,54.396826171875006,0)" xlink:href="#as"/><use transform="matrix(0.008173828125000001,0,0,0.008173828125000001,62.595175781250006,0)" xlink:href="#at"/><use transform="matrix(0.008173828125000001,0,0,0.008173828125000001,66.64939453125001,0)" xlink:href="#au"/></g><g id="y"><use transform="matrix(0.008173828125000001,0,0,0.008173828125000001,0,0)" xlink:href="#aB"/><use transform="matrix(0.008173828125000001,0,0,0.008173828125000001,9.563378906250001,0)" xlink:href="#aK"/><use transform="matrix(0.008173828125000001,0,0,0.008173828125000001,19.600839843750002,0)" xlink:href="#ar"/><use transform="matrix(0.008173828125000001,0,0,0.008173828125000001,29.499345703125005,0)" xlink:href="#aq"/><use transform="matrix(0.008173828125000001,0,0,0.008173828125000001,35.801367187500006,0)" xlink:href="#ao"/><use transform="matrix(0.008173828125000001,0,0,0.008173828125000001,44.63727539062501,0)" xlink:href="#ap"/><use transform="matrix(0.008173828125000001,0,0,0.008173828125000001,54.396826171875006,0)" xlink:href="#as"/><use transform="matrix(0.008173828125000001,0,0,0.008173828125000001,62.03118164062501,0)" xlink:href="#ao"/><use transform="matrix(0.008173828125000001,0,0,0.008173828125000001,70.86708984375001,0)" xlink:href="#ar"/><use transform="matrix(0.008173828125000001,0,0,0.008173828125000001,80.76559570312502,0)" xlink:href="#aS"/><use transform="matrix(0.008173828125000001,0,0,0.008173828125000001,91.01557617187501,0)" xlink:href="#aQ"/><use transform="matrix(0.008173828125000001,0,0,0.008173828125000001,95.06979492187502,0)" xlink:href="#ap"/><use transform="matrix(0.008173828125000001,0,0,0.008173828125000001,104.82934570312501,0)" xlink:href="#aB"/><use transform="matrix(0.008173828125000001,0,0,0.008173828125000001,114.39272460937502,0)" xlink:href="#aO"/><use transform="matrix(0.008173828125000001,0,0,0.008173828125000001,119.86918945312502,0)" xlink:href="#as"/><use transform="matrix(0.008173828125000001,0,0,0.008173828125000001,127.50354492187502,0)" xlink:href="#aB"/><use transform="matrix(0.008173828125000001,0,0,0.008173828125000001,137.06692382812503,0)" xlink:href="#aK"/><use transform="matrix(0.008173828125000001,0,0,0.008173828125000001,147.104384765625,0)" xlink:href="#au"/><use transform="matrix(0.008173828125000001,0,0,0.008173828125000001,157.35436523437502,0)" xlink:href="#ap"/></g><g id="z"><use transform="matrix(0.008173828125000001,0,0,0.008173828125000001,0,0)" xlink:href="#ap"/><use transform="matrix(0.008173828125000001,0,0,0.008173828125000001,9.75955078125,0)" xlink:href="#ax"/><use transform="matrix(0.008173828125000001,0,0,0.008173828125000001,19.649882812500003,0)" xlink:href="#aq"/><use transform="matrix(0.008173828125000001,0,0,0.008173828125000001,25.673994140625002,0)" xlink:href="#aK"/><use transform="matrix(0.008173828125000001,0,0,0.008173828125000001,35.711455078125,0)" xlink:href="#aH"/><use transform="matrix(0.008173828125000001,0,0,0.008173828125000001,39.765673828125,0)" xlink:href="#aH"/><use transform="matrix(0.008173828125000001,0,0,0.008173828125000001,43.81989257812501,0)" xlink:href="#az"/><use transform="matrix(0.008173828125000001,0,0,0.008173828125000001,58.483740234375006,0)" xlink:href="#ap"/><use transform="matrix(0.008173828125000001,0,0,0.008173828125000001,68.243291015625,0)" xlink:href="#ax"/><use transform="matrix(0.008173828125000001,0,0,0.008173828125000001,78.13362304687499,0)" xlink:href="#aO"/><use transform="matrix(0.008173828125000001,0,0,0.008173828125000001,83.610087890625,0)" xlink:href="#as"/><use transform="matrix(0.008173828125000001,0,0,0.008173828125000001,91.244443359375,0)" xlink:href="#aB"/><use transform="matrix(0.008173828125000001,0,0,0.008173828125000001,100.80782226562499,0)" xlink:href="#aK"/><use transform="matrix(0.008173828125000001,0,0,0.008173828125000001,110.84528320312499,0)" xlink:href="#ar"/><use transform="matrix(0.008173828125000001,0,0,0.008173828125000001,120.7437890625,0)" xlink:href="#ax"/><use transform="matrix(0.008173828125000001,0,0,0.008173828125000001,130.63412109375,0)" xlink:href="#aO"/></g><path d="M370-1490V0H180v-1490h190" id="aU"/><path d="M611 442c-248 0-391-105-460-228l146-94c47 65 117 165 314 165 178 0 307-82 307-266v-224h-17C863-141 792-18 576-18c-268 0-472-195-472-546 0-346 197-568 476-568 216 0 288 133 326 193h17v-179h175V29c0 289-215 413-487 413zm-5-620c203 0 314-146 314-390 0-237-108-403-314-403-213 0-319 180-319 403 0 230 109 390 319 390" id="aV"/><g id="A"><use transform="matrix(0.008173828125000001,0,0,0.008173828125000001,0,0)" xlink:href="#aU"/><use transform="matrix(0.008173828125000001,0,0,0.008173828125000001,4.495605468750001,0)" xlink:href="#ax"/><use transform="matrix(0.008173828125000001,0,0,0.008173828125000001,14.3859375,0)" xlink:href="#aO"/><use transform="matrix(0.008173828125000001,0,0,0.008173828125000001,19.69892578125,0)" xlink:href="#ap"/><use transform="matrix(0.008173828125000001,0,0,0.008173828125000001,29.458476562500003,0)" xlink:href="#aV"/><use transform="matrix(0.008173828125000001,0,0,0.008173828125000001,39.724804687500004,0)" xlink:href="#ap"/><use transform="matrix(0.008173828125000001,0,0,0.008173828125000001,49.48435546875,0)" xlink:href="#aq"/></g><g id="B"><use transform="matrix(0.008173828125000001,0,0,0.008173828125000001,0,0)" xlink:href="#at"/><use transform="matrix(0.008173828125000001,0,0,0.008173828125000001,4.05421875,0)" xlink:href="#ax"/><use transform="matrix(0.008173828125000001,0,0,0.008173828125000001,13.944550781250001,0)" xlink:href="#ao"/><use transform="matrix(0.008173828125000001,0,0,0.008173828125000001,22.780458984375002,0)" xlink:href="#aO"/><use transform="matrix(0.008173828125000001,0,0,0.008173828125000001,28.256923828125004,0)" xlink:href="#aq"/><use transform="matrix(0.008173828125000001,0,0,0.008173828125000001,34.5589453125,0)" xlink:href="#ar"/><use transform="matrix(0.008173828125000001,0,0,0.008173828125000001,44.457451171875,0)" xlink:href="#aB"/><use transform="matrix(0.008173828125000001,0,0,0.008173828125000001,54.020830078125,0)" xlink:href="#aO"/><use transform="matrix(0.008173828125000001,0,0,0.008173828125000001,59.333818359375,0)" xlink:href="#aK"/><use transform="matrix(0.008173828125000001,0,0,0.008173828125000001,69.371279296875,0)" xlink:href="#aq"/><use transform="matrix(0.008173828125000001,0,0,0.008173828125000001,75.67330078125,0)" xlink:href="#as"/><use transform="matrix(0.008173828125000001,0,0,0.008173828125000001,83.871650390625,0)" xlink:href="#at"/><use transform="matrix(0.008173828125000001,0,0,0.008173828125000001,87.92586914062501,0)" xlink:href="#au"/></g><g id="C"><use transform="matrix(0.008173828125000001,0,0,0.008173828125000001,0,0)" xlink:href="#au"/><use transform="matrix(0.008173828125000001,0,0,0.008173828125000001,10.249980468750001,0)" xlink:href="#ay"/><use transform="matrix(0.008173828125000001,0,0,0.008173828125000001,19.649882812500003,0)" xlink:href="#aO"/><use transform="matrix(0.008173828125000001,0,0,0.008173828125000001,25.208085937500005,0)" xlink:href="#ay"/><use transform="matrix(0.008173828125000001,0,0,0.008173828125000001,34.60798828125001,0)" xlink:href="#ao"/><use transform="matrix(0.008173828125000001,0,0,0.008173828125000001,43.44389648437501,0)" xlink:href="#ap"/><use transform="matrix(0.008173828125000001,0,0,0.008173828125000001,53.20344726562501,0)" xlink:href="#aO"/><use transform="matrix(0.008173828125000001,0,0,0.008173828125000001,58.67991210937501,0)" xlink:href="#as"/><use transform="matrix(0.008173828125000001,0,0,0.008173828125000001,66.87826171875001,0)" xlink:href="#at"/><use transform="matrix(0.008173828125000001,0,0,0.008173828125000001,70.93248046875001,0)" xlink:href="#au"/></g><g id="D"><use transform="matrix(0.008173828125000001,0,0,0.008173828125000001,0,0)" xlink:href="#aB"/><use transform="matrix(0.008173828125000001,0,0,0.008173828125000001,9.563378906250001,0)" xlink:href="#aq"/><use transform="matrix(0.008173828125000001,0,0,0.008173828125000001,16.126962890625002,0)" xlink:href="#ax"/></g><g id="E"><use transform="matrix(0.008173828125000001,0,0,0.008173828125000001,0,0)" xlink:href="#aM"/><use transform="matrix(0.008173828125000001,0,0,0.008173828125000001,10.740410156250002,0)" xlink:href="#aO"/><use transform="matrix(0.008173828125000001,0,0,0.008173828125000001,16.216875,0)" xlink:href="#aq"/><use transform="matrix(0.008173828125000001,0,0,0.008173828125000001,22.780458984375002,0)" xlink:href="#at"/><use transform="matrix(0.008173828125000001,0,0,0.008173828125000001,26.834677734375003,0)" xlink:href="#ax"/><use transform="matrix(0.008173828125000001,0,0,0.008173828125000001,36.725009765625,0)" xlink:href="#aV"/></g><path d="M98-1322v-168h1126v168H757V0H567v-1322H98" id="aW"/><g id="F"><use transform="matrix(0.008173828125000001,0,0,0.008173828125000001,0,0)" xlink:href="#aW"/><use transform="matrix(0.008173828125000001,0,0,0.008173828125000001,10.805800781250001,0)" xlink:href="#at"/><use transform="matrix(0.008173828125000001,0,0,0.008173828125000001,14.860019531250002,0)" xlink:href="#az"/><use transform="matrix(0.008173828125000001,0,0,0.008173828125000001,29.523867187500002,0)" xlink:href="#ap"/></g><g id="G"><use transform="matrix(0.008173828125000001,0,0,0.008173828125000001,0,0)" xlink:href="#aM"/><use transform="matrix(0.008173828125000001,0,0,0.008173828125000001,10.740410156250002,0)" xlink:href="#aH"/><use transform="matrix(0.008173828125000001,0,0,0.008173828125000001,14.794628906250002,0)" xlink:href="#aK"/><use transform="matrix(0.008173828125000001,0,0,0.008173828125000001,24.83208984375001,0)" xlink:href="#aO"/><use transform="matrix(0.008173828125000001,0,0,0.008173828125000001,30.145078125000005,0)" xlink:href="#ao"/></g><g id="H"><use transform="matrix(0.008173828125000001,0,0,0.008173828125000001,0,0)" xlink:href="#aO"/><use transform="matrix(0.008173828125000001,0,0,0.008173828125000001,5.4764648437500005,0)" xlink:href="#at"/><use transform="matrix(0.008173828125000001,0,0,0.008173828125000001,9.530683593750002,0)" xlink:href="#az"/><use transform="matrix(0.008173828125000001,0,0,0.008173828125000001,24.194531250000004,0)" xlink:href="#ap"/><use transform="matrix(0.008173828125000001,0,0,0.008173828125000001,33.95408203125,0)" xlink:href="#as"/><use transform="matrix(0.008173828125000001,0,0,0.008173828125000001,41.588437500000005,0)" xlink:href="#ao"/><use transform="matrix(0.008173828125000001,0,0,0.008173828125000001,50.424345703125006,0)" xlink:href="#aH"/><use transform="matrix(0.008173828125000001,0,0,0.008173828125000001,54.47856445312501,0)" xlink:href="#aK"/><use transform="matrix(0.008173828125000001,0,0,0.008173828125000001,64.516025390625,0)" xlink:href="#aO"/><use transform="matrix(0.008173828125000001,0,0,0.008173828125000001,69.992490234375,0)" xlink:href="#as"/><use transform="matrix(0.008173828125000001,0,0,0.008173828125000001,78.19083984375,0)" xlink:href="#at"/><use transform="matrix(0.008173828125000001,0,0,0.008173828125000001,82.24505859374999,0)" xlink:href="#au"/></g><g id="I"><use transform="matrix(0.008173828125000001,0,0,0.008173828125000001,0,0)" xlink:href="#ao"/><use transform="matrix(0.008173828125000001,0,0,0.008173828125000001,8.835908203125001,0)" xlink:href="#aH"/><use transform="matrix(0.008173828125000001,0,0,0.008173828125000001,12.890126953125002,0)" xlink:href="#aK"/><use transform="matrix(0.008173828125000001,0,0,0.008173828125000001,22.927587890625002,0)" xlink:href="#aO"/><use transform="matrix(0.008173828125000001,0,0,0.008173828125000001,28.404052734375004,0)" xlink:href="#as"/><use transform="matrix(0.008173828125000001,0,0,0.008173828125000001,36.60240234374999,0)" xlink:href="#aH"/><use transform="matrix(0.008173828125000001,0,0,0.008173828125000001,40.656621093750005,0)" xlink:href="#ay"/><use transform="matrix(0.008173828125000001,0,0,0.008173828125000001,50.056523437500005,0)" xlink:href="#aS"/><use transform="matrix(0.008173828125000001,0,0,0.008173828125000001,60.30650390625001,0)" xlink:href="#ap"/><use transform="matrix(0.008173828125000001,0,0,0.008173828125000001,70.06605468750001,0)" xlink:href="#aH"/></g><g id="J"><use transform="matrix(0.008173828125000001,0,0,0.008173828125000001,0,0)" xlink:href="#au"/><use transform="matrix(0.008173828125000001,0,0,0.008173828125000001,10.249980468750001,0)" xlink:href="#ay"/><use transform="matrix(0.008173828125000001,0,0,0.008173828125000001,19.404667968750005,0)" xlink:href="#aR"/></g><path d="M180 0v-1490h908v168H370v486h669v168H370v500h727V0H180" id="aX"/><g id="K"><use transform="matrix(0.008173828125000001,0,0,0.008173828125000001,0,0)" xlink:href="#aX"/><use transform="matrix(0.008173828125000001,0,0,0.008173828125000001,10.061982421875001,0)" xlink:href="#ax"/><use transform="matrix(0.008173828125000001,0,0,0.008173828125000001,19.952314453125002,0)" xlink:href="#ar"/><use transform="matrix(0.008173828125000001,0,0,0.008173828125000001,29.850820312500005,0)" xlink:href="#az"/></g><g id="L"><use transform="matrix(0.008173828125000001,0,0,0.008173828125000001,0,0)" xlink:href="#ao"/><use transform="matrix(0.008173828125000001,0,0,0.008173828125000001,8.835908203125001,0)" xlink:href="#aO"/><use transform="matrix(0.008173828125000001,0,0,0.008173828125000001,14.394111328125003,0)" xlink:href="#ay"/><use transform="matrix(0.008173828125000001,0,0,0.008173828125000001,23.794013671875007,0)" xlink:href="#aq"/><use transform="matrix(0.008173828125000001,0,0,0.008173828125000001,30.357597656250007,0)" xlink:href="#aO"/><use transform="matrix(0.008173828125000001,0,0,0.008173828125000001,35.83406250000001,0)" xlink:href="#as"/><use transform="matrix(0.008173828125000001,0,0,0.008173828125000001,43.46841796875001,0)" xlink:href="#aO"/><use transform="matrix(0.008173828125000001,0,0,0.008173828125000001,48.94488281250001,0)" xlink:href="#at"/><use transform="matrix(0.008173828125000001,0,0,0.008173828125000001,52.999101562500016,0)" xlink:href="#az"/><use transform="matrix(0.008173828125000001,0,0,0.008173828125000001,67.66294921875001,0)" xlink:href="#ap"/></g><g id="M"><use transform="matrix(0.008173828125000001,0,0,0.008173828125000001,0,0)" xlink:href="#aW"/><use transform="matrix(0.008173828125000001,0,0,0.008173828125000001,10.805800781250001,0)" xlink:href="#at"/><use transform="matrix(0.008173828125000001,0,0,0.008173828125000001,14.860019531250002,0)" xlink:href="#az"/><use transform="matrix(0.008173828125000001,0,0,0.008173828125000001,29.523867187500002,0)" xlink:href="#ap"/></g><g id="N"><use transform="matrix(0.008173828125000001,0,0,0.008173828125000001,0,0)" xlink:href="#ap"/><use transform="matrix(0.008173828125000001,0,0,0.008173828125000001,9.75955078125,0)" xlink:href="#ax"/><use transform="matrix(0.008173828125000001,0,0,0.008173828125000001,19.649882812500003,0)" xlink:href="#au"/><use transform="matrix(0.008173828125000001,0,0,0.008173828125000001,29.899863281250006,0)" xlink:href="#as"/><use transform="matrix(0.008173828125000001,0,0,0.008173828125000001,37.53421875000001,0)" xlink:href="#aO"/><use transform="matrix(0.008173828125000001,0,0,0.008173828125000001,43.01068359375001,0)" xlink:href="#at"/><use transform="matrix(0.008173828125000001,0,0,0.008173828125000001,47.064902343750006,0)" xlink:href="#az"/><use transform="matrix(0.008173828125000001,0,0,0.008173828125000001,61.728750000000005,0)" xlink:href="#ap"/></g><path d="M65 0l393-574-370-544h210c88 136 192 297 267 435 67-142 176-302 264-435h206L661-564 1053 0H844c-94-144-206-310-287-458C484-308 366-142 273 0H65" id="aY"/><g id="O"><use transform="matrix(0.008173828125000001,0,0,0.008173828125000001,0,0)" xlink:href="#aX"/><use transform="matrix(0.008173828125000001,0,0,0.008173828125000001,10.061982421875001,0)" xlink:href="#aY"/><use transform="matrix(0.008173828125000001,0,0,0.008173828125000001,19.200322265625005,0)" xlink:href="#ay"/><use transform="matrix(0.008173828125000001,0,0,0.008173828125000001,28.600224609375005,0)" xlink:href="#az"/></g><path d="M52 0l541-1490h220L1361 0h-200l-149-416H398L254 0H52zm404-582h497c-103-290-145-390-251-756-108 377-145 460-246 756" id="aZ"/><g id="P"><use transform="matrix(0.008173828125000001,0,0,0.008173828125000001,0,0)" xlink:href="#aZ"/><use transform="matrix(0.008173828125000001,0,0,0.008173828125000001,11.549619140625001,0)" xlink:href="#ao"/><use transform="matrix(0.008173828125000001,0,0,0.008173828125000001,20.385527343750002,0)" xlink:href="#ao"/><use transform="matrix(0.008173828125000001,0,0,0.008173828125000001,29.221435546875004,0)" xlink:href="#at"/><use transform="matrix(0.008173828125000001,0,0,0.008173828125000001,33.275654296875004,0)" xlink:href="#aV"/><use transform="matrix(0.008173828125000001,0,0,0.008173828125000001,43.541982421875005,0)" xlink:href="#ax"/><use transform="matrix(0.008173828125000001,0,0,0.008173828125000001,53.432314453125,0)" xlink:href="#az"/><use transform="matrix(0.008173828125000001,0,0,0.008173828125000001,68.096162109375,0)" xlink:href="#ap"/><use transform="matrix(0.008173828125000001,0,0,0.008173828125000001,77.855712890625,0)" xlink:href="#ax"/><use transform="matrix(0.008173828125000001,0,0,0.008173828125000001,87.746044921875,0)" xlink:href="#aO"/><use transform="matrix(0.008173828125000001,0,0,0.008173828125000001,93.059033203125,0)" xlink:href="#ao"/></g><g id="Q"><use transform="matrix(0.008173828125000001,0,0,0.008173828125000001,0,0)" xlink:href="#aq"/><use transform="matrix(0.008173828125000001,0,0,0.008173828125000001,6.0241113281250005,0)" xlink:href="#aK"/><use transform="matrix(0.008173828125000001,0,0,0.008173828125000001,16.061572265625003,0)" xlink:href="#aK"/><use transform="matrix(0.008173828125000001,0,0,0.008173828125000001,26.099033203125003,0)" xlink:href="#az"/><use transform="matrix(0.008173828125000001,0,0,0.008173828125000001,40.762880859375,0)" xlink:href="#as"/><use transform="matrix(0.008173828125000001,0,0,0.008173828125000001,48.96123046875,0)" xlink:href="#at"/><use transform="matrix(0.008173828125000001,0,0,0.008173828125000001,53.01544921875001,0)" xlink:href="#au"/></g><path d="M678-1118v154H420V0H240v-964H20v-154h220v-149c0-194 155-293 318-293 85 0 141 18 168 30l-50 154c-19-6-47-17-97-17-111 0-159 58-159 166v109h258" id="ba"/><g id="R"><use transform="matrix(0.008173828125000001,0,0,0.008173828125000001,0,0)" xlink:href="#aT"/><use transform="matrix(0.008173828125000001,0,0,0.008173828125000001,12.228046875000002,0)" xlink:href="#aK"/><use transform="matrix(0.008173828125000001,0,0,0.008173828125000001,22.265507812500008,0)" xlink:href="#ax"/><use transform="matrix(0.008173828125000001,0,0,0.008173828125000001,32.15583984375,0)" xlink:href="#ba"/><use transform="matrix(0.008173828125000001,0,0,0.008173828125000001,38.35160156250001,0)" xlink:href="#aH"/><use transform="matrix(0.008173828125000001,0,0,0.008173828125000001,42.4058203125,0)" xlink:href="#at"/><use transform="matrix(0.008173828125000001,0,0,0.008173828125000001,46.460039062499995,0)" xlink:href="#aB"/><use transform="matrix(0.008173828125000001,0,0,0.008173828125000001,56.02341796875,0)" xlink:href="#aO"/><use transform="matrix(0.008463541666666668,0,0,0.008463541666666668,61.499882812500005,0)" xlink:href="#aZ"/><use transform="matrix(0.008463541666666668,0,0,0.008463541666666668,73.4588671875,0)" xlink:href="#ax"/><use transform="matrix(0.008463541666666668,0,0,0.008463541666666668,83.69975260416668,0)" xlink:href="#ay"/><use transform="matrix(0.008463541666666668,0,0,0.008463541666666668,93.43282552083335,0)" xlink:href="#aH"/><use transform="matrix(0.008463541666666668,0,0,0.008463541666666668,97.71537760416669,0)" xlink:href="#aR"/><use transform="matrix(0.008463541666666668,0,0,0.008463541666666668,107.45691406250002,0)" xlink:href="#ao"/><use transform="matrix(0.008463541666666668,0,0,0.008463541666666668,116.60600260416669,0)" xlink:href="#ap"/><use transform="matrix(0.008463541666666668,0,0,0.008463541666666668,126.71147135416669,0)" xlink:href="#ao"/></g><g id="S"><use transform="matrix(0.008173828125000001,0,0,0.008173828125000001,0,0)" xlink:href="#ay"/><use transform="matrix(0.008173828125000001,0,0,0.008173828125000001,9.399902343750002,0)" xlink:href="#ax"/><use transform="matrix(0.008173828125000001,0,0,0.008173828125000001,19.290234375000004,0)" xlink:href="#ay"/><use transform="matrix(0.008173828125000001,0,0,0.008173828125000001,28.690136718750004,0)" xlink:href="#aH"/><use transform="matrix(0.008173828125000001,0,0,0.008173828125000001,32.826093750000005,0)" xlink:href="#aR"/><use transform="matrix(0.008173828125000001,0,0,0.008173828125000001,42.23416992187501,0)" xlink:href="#ao"/><use transform="matrix(0.008173828125000001,0,0,0.008173828125000001,51.07007812500001,0)" xlink:href="#at"/><use transform="matrix(0.008173828125000001,0,0,0.008173828125000001,55.12429687500001,0)" xlink:href="#ao"/><use transform="matrix(0.008173828125000001,0,0,0.008173828125000001,63.960205078125014,0)" xlink:href="#as"/><use transform="matrix(0.008173828125000001,0,0,0.008173828125000001,72.15855468750001,0)" xlink:href="#at"/><use transform="matrix(0.008173828125000001,0,0,0.008173828125000001,76.21277343750002,0)" xlink:href="#au"/></g><g id="T"><use transform="matrix(0.008173828125000001,0,0,0.008173828125000001,0,0)" xlink:href="#aB"/><use transform="matrix(0.008173828125000001,0,0,0.008173828125000001,9.563378906250001,0)" xlink:href="#aK"/><use transform="matrix(0.008173828125000001,0,0,0.008173828125000001,19.600839843750002,0)" xlink:href="#ax"/><use transform="matrix(0.008173828125000001,0,0,0.008173828125000001,29.491171875000003,0)" xlink:href="#ba"/><use transform="matrix(0.008173828125000001,0,0,0.008173828125000001,35.686933593750005,0)" xlink:href="#aH"/><use transform="matrix(0.008173828125000001,0,0,0.008173828125000001,39.74115234375,0)" xlink:href="#at"/><use transform="matrix(0.008173828125000001,0,0,0.008173828125000001,43.795371093750006,0)" xlink:href="#aB"/><use transform="matrix(0.008173828125000001,0,0,0.008173828125000001,53.35875000000001,0)" xlink:href="#aO"/><use transform="matrix(0.008173828125000001,0,0,0.008173828125000001,58.67173828125001,0)" xlink:href="#ao"/></g><g id="U"><use transform="matrix(0.008173828125000001,0,0,0.008173828125000001,0,0)" xlink:href="#aQ"/><use transform="matrix(0.008173828125000001,0,0,0.008173828125000001,4.05421875,0)" xlink:href="#ao"/><use transform="matrix(0.008173828125000001,0,0,0.008173828125000001,12.890126953125002,0)" xlink:href="#aK"/><use transform="matrix(0.008173828125000001,0,0,0.008173828125000001,22.927587890625002,0)" xlink:href="#ax"/></g><path d="M180 0v-1490h510c348 0 508 194 508 460 0 198-88 351-276 417L1256 0h-220L726-579c-117 2-238 0-356 1V0H180zm190-747h312c235 0 327-108 327-283 0-177-92-293-329-293H370v576" id="bb"/><g id="V"><use transform="matrix(0.008173828125000001,0,0,0.008173828125000001,0,0)" xlink:href="#bb"/><use transform="matrix(0.008173828125000001,0,0,0.008173828125000001,10.527890625000001,0)" xlink:href="#aK"/><use transform="matrix(0.008173828125000001,0,0,0.008173828125000001,20.565351562500002,0)" xlink:href="#aK"/><use transform="matrix(0.008173828125000001,0,0,0.008173828125000001,30.602812500000002,0)" xlink:href="#az"/><use transform="matrix(0.008173828125000001,0,0,0.008173828125000001,45.266660156250005,0)" xlink:href="#ao"/></g><g id="W"><use transform="matrix(0.008173828125000001,0,0,0.008173828125000001,0,0)" xlink:href="#aB"/><use transform="matrix(0.008173828125000001,0,0,0.008173828125000001,9.726855468750001,0)" xlink:href="#ay"/><use transform="matrix(0.008173828125000001,0,0,0.008173828125000001,19.126757812500003,0)" xlink:href="#aI"/><use transform="matrix(0.008173828125000001,0,0,0.008173828125000001,29.540214843750007,0)" xlink:href="#ay"/><use transform="matrix(0.008173828125000001,0,0,0.008173828125000001,38.94011718750001,0)" xlink:href="#aB"/><use transform="matrix(0.008173828125000001,0,0,0.008173828125000001,48.50349609375001,0)" xlink:href="#at"/><use transform="matrix(0.008173828125000001,0,0,0.008173828125000001,52.557714843750006,0)" xlink:href="#aO"/><use transform="matrix(0.008173828125000001,0,0,0.008173828125000001,58.36113281250001,0)" xlink:href="#aR"/></g><g id="X"><use transform="matrix(0.008173828125000001,0,0,0.008173828125000001,0,0)" xlink:href="#at"/><use transform="matrix(0.008173828125000001,0,0,0.008173828125000001,4.05421875,0)" xlink:href="#ax"/><use transform="matrix(0.008173828125000001,0,0,0.008173828125000001,13.944550781250001,0)" xlink:href="#aO"/><use transform="matrix(0.008173828125000001,0,0,0.008173828125000001,19.2575390625,0)" xlink:href="#ap"/><use transform="matrix(0.008173828125000001,0,0,0.008173828125000001,29.01708984375,0)" xlink:href="#aV"/><use transform="matrix(0.008173828125000001,0,0,0.008173828125000001,39.28341796875,0)" xlink:href="#ap"/><use transform="matrix(0.008173828125000001,0,0,0.008173828125000001,49.04296875,0)" xlink:href="#aq"/></g><g id="Y"><use transform="matrix(0.008173828125000001,0,0,0.008173828125000001,0,0)" xlink:href="#aH"/><use transform="matrix(0.008173828125000001,0,0,0.008173828125000001,4.05421875,0)" xlink:href="#aK"/><use transform="matrix(0.008173828125000001,0,0,0.008173828125000001,14.091679687500001,0)" xlink:href="#aB"/><use transform="matrix(0.008173828125000001,0,0,0.008173828125000001,23.81853515625,0)" xlink:href="#ay"/><use transform="matrix(0.008173828125000001,0,0,0.008173828125000001,33.2184375,0)" xlink:href="#aO"/><use transform="matrix(0.008173828125000001,0,0,0.008173828125000001,38.69490234375,0)" xlink:href="#at"/><use transform="matrix(0.008173828125000001,0,0,0.008173828125000001,42.749121093750006,0)" xlink:href="#aK"/><use transform="matrix(0.008173828125000001,0,0,0.008173828125000001,52.786582031250006,0)" xlink:href="#ax"/></g><path d="M645 0H180v-1490h484c435 0 692 280 692 742 0 466-257 748-711 748zM370-168h263c363 0 539-218 539-580 0-358-176-574-521-574H370v1154" id="bc"/><g id="Z"><use transform="matrix(0.008173828125000001,0,0,0.008173828125000001,0,0)" xlink:href="#bc"/><use transform="matrix(0.008173828125000001,0,0,0.008173828125000001,12.08091796875,0)" xlink:href="#ay"/><use transform="matrix(0.008173828125000001,0,0,0.008173828125000001,21.4808203125,0)" xlink:href="#aO"/><use transform="matrix(0.008173828125000001,0,0,0.008173828125000001,27.039023437500003,0)" xlink:href="#ay"/><use transform="matrix(0.008173828125000001,0,0,0.008173828125000001,36.438925781250006,0)" xlink:href="#ao"/><use transform="matrix(0.008173828125000001,0,0,0.008173828125000001,45.27483398437501,0)" xlink:href="#ap"/><use transform="matrix(0.008173828125000001,0,0,0.008173828125000001,55.034384765625006,0)" xlink:href="#aO"/><use transform="matrix(0.008173828125000001,0,0,0.008173828125000001,60.347373046875006,0)" xlink:href="#ao"/></g><g id="aa"><use transform="matrix(0.008173828125000001,0,0,0.008173828125000001,0,0)" xlink:href="#ao"/><use transform="matrix(0.008173828125000001,0,0,0.008173828125000001,8.835908203125001,0)" xlink:href="#ap"/><use transform="matrix(0.008173828125000001,0,0,0.008173828125000001,18.595458984375,0)" xlink:href="#az"/><use transform="matrix(0.008173828125000001,0,0,0.008173828125000001,33.259306640625,0)" xlink:href="#ap"/><use transform="matrix(0.008173828125000001,0,0,0.008173828125000001,43.018857421875,0)" xlink:href="#ao"/><use transform="matrix(0.008173828125000001,0,0,0.008173828125000001,51.854765625,0)" xlink:href="#aO"/><use transform="matrix(0.008173828125000001,0,0,0.008173828125000001,57.16775390625,0)" xlink:href="#ap"/><use transform="matrix(0.008173828125000001,0,0,0.008173828125000001,66.9273046875,0)" xlink:href="#aq"/></g><g id="ab"><use transform="matrix(0.008173828125000001,0,0,0.008173828125000001,0,0)" xlink:href="#ar"/><use transform="matrix(0.008173828125000001,0,0,0.008173828125000001,9.898505859375001,0)" xlink:href="#aI"/><use transform="matrix(0.008173828125000001,0,0,0.008173828125000001,20.148486328125003,0)" xlink:href="#aH"/><use transform="matrix(0.008173828125000001,0,0,0.008173828125000001,24.202705078125003,0)" xlink:href="#aK"/><use transform="matrix(0.008173828125000001,0,0,0.008173828125000001,34.403642578125,0)" xlink:href="#ay"/><use transform="matrix(0.008173828125000001,0,0,0.008173828125000001,43.803544921875,0)" xlink:href="#au"/><use transform="matrix(0.008173828125000001,0,0,0.008173828125000001,54.053525390625005,0)" xlink:href="#as"/><use transform="matrix(0.008173828125000001,0,0,0.008173828125000001,61.68788085937501,0)" xlink:href="#ay"/><use transform="matrix(0.008173828125000001,0,0,0.008173828125000001,71.08778320312501,0)" xlink:href="#aO"/></g><g id="ac"><use transform="matrix(0.008173828125000001,0,0,0.008173828125000001,0,0)" xlink:href="#aP"/><use transform="matrix(0.008173828125000001,0,0,0.008173828125000001,9.882158203125002,0)" xlink:href="#aw"/></g><g id="ad"><use transform="matrix(0.008173828125000001,0,0,0.008173828125000001,0,0)" xlink:href="#ba"/><use transform="matrix(0.008173828125000001,0,0,0.008173828125000001,6.195761718750001,0)" xlink:href="#at"/><use transform="matrix(0.008173828125000001,0,0,0.008173828125000001,10.249980468750001,0)" xlink:href="#aH"/><use transform="matrix(0.008173828125000001,0,0,0.008173828125000001,14.304199218750002,0)" xlink:href="#ap"/><use transform="matrix(0.008173828125000001,0,0,0.008173828125000001,24.063750000000002,0)" xlink:href="#as"/><use transform="matrix(0.008173828125000001,0,0,0.008173828125000001,32.262099609375,0)" xlink:href="#aI"/><use transform="matrix(0.008173828125000001,0,0,0.008173828125000001,42.675556640625004,0)" xlink:href="#ay"/><use transform="matrix(0.008173828125000001,0,0,0.008173828125000001,52.075458984375004,0)" xlink:href="#aO"/><use transform="matrix(0.008173828125000001,0,0,0.008173828125000001,57.551923828125005,0)" xlink:href="#aC"/><use transform="matrix(0.008173828125000001,0,0,0.008173828125000001,67.4504296875,0)" xlink:href="#ao"/></g><g id="ae"><use transform="matrix(0.008173828125000001,0,0,0.008173828125000001,0,0)" xlink:href="#au"/><use transform="matrix(0.008173828125000001,0,0,0.008173828125000001,10.249980468750001,0)" xlink:href="#ap"/><use transform="matrix(0.008173828125000001,0,0,0.008173828125000001,20.009531250000002,0)" xlink:href="#aH"/><use transform="matrix(0.008173828125000001,0,0,0.008173828125000001,24.063750000000002,0)" xlink:href="#ap"/><use transform="matrix(0.008173828125000001,0,0,0.008173828125000001,33.823300781250005,0)" xlink:href="#aO"/><use transform="matrix(0.008173828125000001,0,0,0.008173828125000001,39.136289062500005,0)" xlink:href="#ap"/><use transform="matrix(0.008173828125000001,0,0,0.008173828125000001,48.895839843750004,0)" xlink:href="#au"/><use transform="matrix(0.008173828125000001,0,0,0.008173828125000001,59.14582031250001,0)" xlink:href="#as"/><use transform="matrix(0.008173828125000001,0,0,0.008173828125000001,66.78017578125001,0)" xlink:href="#ay"/><use transform="matrix(0.008173828125000001,0,0,0.008173828125000001,76.18007812500001,0)" xlink:href="#aO"/></g><g id="af"><use transform="matrix(0.008173828125000001,0,0,0.008173828125000001,0,0)" xlink:href="#bb"/><use transform="matrix(0.008173828125000001,0,0,0.008173828125000001,10.773105468750002,0)" xlink:href="#ar"/><use transform="matrix(0.008173828125000001,0,0,0.008173828125000001,20.671611328125003,0)" xlink:href="#ax"/><use transform="matrix(0.008173828125000001,0,0,0.008173828125000001,30.561943359375004,0)" xlink:href="#ao"/></g><g id="ag"><use transform="matrix(0.008173828125000001,0,0,0.008173828125000001,0,0)" xlink:href="#ay"/><use transform="matrix(0.008173828125000001,0,0,0.008173828125000001,9.399902343750002,0)" xlink:href="#aH"/><use transform="matrix(0.008173828125000001,0,0,0.008173828125000001,13.454121093750002,0)" xlink:href="#aV"/><use transform="matrix(0.008173828125000001,0,0,0.008173828125000001,23.720449218750005,0)" xlink:href="#aK"/><use transform="matrix(0.008173828125000001,0,0,0.008173828125000001,33.757910156250006,0)" xlink:href="#aq"/><use transform="matrix(0.008173828125000001,0,0,0.008173828125000001,40.321494140625006,0)" xlink:href="#at"/><use transform="matrix(0.008173828125000001,0,0,0.008173828125000001,44.37571289062501,0)" xlink:href="#aO"/><use transform="matrix(0.008173828125000001,0,0,0.008173828125000001,49.85217773437501,0)" xlink:href="#aC"/><use transform="matrix(0.008173828125000001,0,0,0.008173828125000001,59.75068359375001,0)" xlink:href="#az"/><use transform="matrix(0.008173828125000001,0,0,0.008173828125000001,74.41453125000001,0)" xlink:href="#as"/><use transform="matrix(0.008173828125000001,0,0,0.008173828125000001,82.61288085937501,0)" xlink:href="#ax"/><use transform="matrix(0.008173828125000001,0,0,0.008173828125000001,92.50321289062501,0)" xlink:href="#ay"/><use transform="matrix(0.008173828125000001,0,0,0.008173828125000001,101.90311523437501,0)" xlink:href="#az"/><use transform="matrix(0.008173828125000001,0,0,0.008173828125000001,116.566962890625,0)" xlink:href="#ap"/></g><g id="ah"><use transform="matrix(0.008173828125000001,0,0,0.008173828125000001,0,0)" xlink:href="#aI"/><use transform="matrix(0.008173828125000001,0,0,0.008173828125000001,10.413457031250001,0)" xlink:href="#ay"/><use transform="matrix(0.008173828125000001,0,0,0.008173828125000001,19.813359375000005,0)" xlink:href="#aq"/><use transform="matrix(0.008173828125000001,0,0,0.008173828125000001,26.11538085937501,0)" xlink:href="#ay"/><use transform="matrix(0.008173828125000001,0,0,0.008173828125000001,35.51528320312501,0)" xlink:href="#az"/><use transform="matrix(0.008173828125000001,0,0,0.008173828125000001,50.17913085937501,0)" xlink:href="#ap"/><use transform="matrix(0.008173828125000001,0,0,0.008173828125000001,59.938681640625006,0)" xlink:href="#aO"/><use transform="matrix(0.008173828125000001,0,0,0.008173828125000001,65.251669921875,0)" xlink:href="#ap"/><use transform="matrix(0.008173828125000001,0,0,0.008173828125000001,75.011220703125,0)" xlink:href="#aq"/><use transform="matrix(0.008173828125000001,0,0,0.008173828125000001,81.31324218750001,0)" xlink:href="#ao"/></g><g id="ai"><use transform="matrix(0.008173828125000001,0,0,0.008173828125000001,0,0)" xlink:href="#ao"/><use transform="matrix(0.008173828125000001,0,0,0.008173828125000001,8.835908203125001,0)" xlink:href="#aO"/><use transform="matrix(0.008173828125000001,0,0,0.008173828125000001,14.394111328125003,0)" xlink:href="#ay"/><use transform="matrix(0.008173828125000001,0,0,0.008173828125000001,23.794013671875007,0)" xlink:href="#aO"/><use transform="matrix(0.008173828125000001,0,0,0.008173828125000001,29.27047851562501,0)" xlink:href="#ar"/><use transform="matrix(0.008173828125000001,0,0,0.008173828125000001,39.16898437500001,0)" xlink:href="#ao"/></g><g id="aj"><use transform="matrix(0.008173828125000001,0,0,0.008173828125000001,0,0)" xlink:href="#ap"/><use transform="matrix(0.008173828125000001,0,0,0.008173828125000001,9.75955078125,0)" xlink:href="#ax"/><use transform="matrix(0.008173828125000001,0,0,0.008173828125000001,19.649882812500003,0)" xlink:href="#ar"/><use transform="matrix(0.008173828125000001,0,0,0.008173828125000001,29.548388671875003,0)" xlink:href="#az"/></g><path d="M128 359l88-567h206L266 359H128" id="bd"/><g id="ak"><use transform="matrix(0.008173828125000001,0,0,0.008173828125000001,0,0)" xlink:href="#aD"/><use transform="matrix(0.008173828125000001,0,0,0.008173828125000001,6.105849609375,0)" xlink:href="#bb"/><use transform="matrix(0.008173828125000001,0,0,0.008173828125000001,16.878955078125003,0)" xlink:href="#ar"/><use transform="matrix(0.008173828125000001,0,0,0.008173828125000001,26.777460937500003,0)" xlink:href="#ax"/><use transform="matrix(0.008173828125000001,0,0,0.008173828125000001,36.66779296875001,0)" xlink:href="#ax"/><use transform="matrix(0.008173828125000001,0,0,0.008173828125000001,46.558125000000004,0)" xlink:href="#at"/><use transform="matrix(0.008173828125000001,0,0,0.008173828125000001,50.61234375000001,0)" xlink:href="#ax"/><use transform="matrix(0.008173828125000001,0,0,0.008173828125000001,60.502675781250005,0)" xlink:href="#aV"/><use transform="matrix(0.008173828125000001,0,0,0.008173828125000001,70.76900390625,0)" xlink:href="#bd"/></g><g id="al"><use transform="matrix(0.008173828125000001,0,0,0.008173828125000001,0,0)" xlink:href="#aT"/><use transform="matrix(0.008173828125000001,0,0,0.008173828125000001,12.228046875000002,0)" xlink:href="#aK"/><use transform="matrix(0.008173828125000001,0,0,0.008173828125000001,22.265507812500008,0)" xlink:href="#az"/><use transform="matrix(0.008173828125000001,0,0,0.008173828125000001,36.92935546875,0)" xlink:href="#aI"/><use transform="matrix(0.008173828125000001,0,0,0.008173828125000001,47.17933593750001,0)" xlink:href="#aH"/><use transform="matrix(0.008173828125000001,0,0,0.008173828125000001,51.2335546875,0)" xlink:href="#ap"/><use transform="matrix(0.008173828125000001,0,0,0.008173828125000001,60.99310546875,0)" xlink:href="#aO"/><use transform="matrix(0.008173828125000001,0,0,0.008173828125000001,66.30609375,0)" xlink:href="#ap"/><use transform="matrix(0.008173828125000001,0,0,0.008173828125000001,76.06564453125,0)" xlink:href="#au"/><use transform="matrix(0.008173828125000001,0,0,0.008173828125000001,86.315625,0)" xlink:href="#bd"/></g><g id="am"><use transform="matrix(0.008173828125000001,0,0,0.008173828125000001,0,0)" xlink:href="#aP"/><use transform="matrix(0.008173828125000001,0,0,0.008173828125000001,9.473466796875002,0)" xlink:href="#ay"/><use transform="matrix(0.008173828125000001,0,0,0.008173828125000001,18.873369140625,0)" xlink:href="#at"/><use transform="matrix(0.008173828125000001,0,0,0.008173828125000001,22.927587890625002,0)" xlink:href="#aH"/><use transform="matrix(0.008173828125000001,0,0,0.008173828125000001,26.981806640625003,0)" xlink:href="#ap"/><use transform="matrix(0.008173828125000001,0,0,0.008173828125000001,36.741357421875,0)" xlink:href="#au"/><use transform="matrix(0.008173828125000001,0,0,0.008173828125000001,46.991337890625005,0)" xlink:href="#aG"/></g></defs></g></svg>