
<svg width="530" height="220" viewBox="0 0 370 99.96" xmlns="http://www.w3.org/2000/svg" class="logo-svg">
  <path xmlns="http://www.w3.org/2000/svg" d="M11.713 6.699a4.994 4.994 0 0 0-4.994 4.994 1.665 1.665 0 0 0 3.33 0 1.665 1.665 0 0 1 1.664-1.665 1.665 1.665 0 0 0 0-3.33m34.959 6.66a1.665 1.665 0 0 0 1.664-1.665 1.665 1.665 0 0 1 1.665-1.665 1.665 1.665 0 0 0 0-3.33 4.994 4.994 0 0 0-4.994 4.995 1.665 1.665 0 0 0 1.665 1.665m38.288 0a1.665 1.665 0 0 0 1.664-1.665 1.665 1.665 0 0 1 1.665-1.665 1.665 1.665 0 0 0 0-3.33 4.994 4.994 0 0 0-4.994 4.995 1.665 1.665 0 0 0 1.665 1.665M11.713 44.987a4.994 4.994 0 0 0-4.994 4.994 1.665 1.665 0 0 0 3.33 0 1.665 1.665 0 0 1 1.664-1.665 1.665 1.665 0 0 0 0-3.33m34.959 6.66a1.665 1.665 0 0 0 1.664-1.665 1.665 1.665 0 0 1 1.665-1.665 1.665 1.665 0 0 0 0-3.33 4.994 4.994 0 0 0-4.994 4.995 1.665 1.665 0 0 0 1.665 1.665m38.288 0a1.665 1.665 0 0 0 1.664-1.665 1.665 1.665 0 0 1 1.665-1.665 1.665 1.665 0 0 0 0-3.33 4.994 4.994 0 0 0-4.994 4.995 1.665 1.665 0 0 0 1.665 1.665M11.713 83.275a4.994 4.994 0 0 0-4.994 4.994 1.665 1.665 0 0 0 3.33 0 1.665 1.665 0 0 1 1.664-1.665 1.665 1.665 0 0 0 0-3.329m38.288 0a4.994 4.994 0 0 0-4.994 4.994 1.665 1.665 0 0 0 3.33 0A1.665 1.665 0 0 1 50 86.604a1.665 1.665 0 0 0 0-3.329m34.959 6.659a1.665 1.665 0 0 0 1.664-1.665 1.665 1.665 0 0 1 1.665-1.665 1.665 1.665 0 0 0 0-3.329 4.994 4.994 0 0 0-4.994 4.994 1.665 1.665 0 0 0 1.665 1.665"/>
  <path xmlns="http://www.w3.org/2000/svg" d="M81.324 21.015a11.653 11.653 0 1 0-4.555-10.987H61.521a11.638 11.638 0 0 0-23.04 0H23.233a11.675 11.675 0 1 0-4.555 10.987l9.822 9.822-9.822 9.822a11.653 11.653 0 1 0 0 18.644l9.822 9.822-9.822 9.822a11.653 11.653 0 1 0 4.555 10.987H38.48a11.638 11.638 0 0 0 23.04 0h15.248a11.673 11.673 0 1 0 4.553-10.987l-9.821-9.822 9.821-9.822a11.653 11.653 0 1 0 0-18.644l-9.821-9.822ZM56.968 78.947a11.57 11.57 0 0 0-13.934 0l-9.821-9.822 9.821-9.822a11.56 11.56 0 0 0 13.93 0l9.822 9.822ZM44.12 44.1a8.31 8.31 0 0 1 11.76 0 8.31 8.31 0 0 1 0 11.76 8.31 8.31 0 0 1-11.76 0 8.31 8.31 0 0 1 0-11.76m12.846-3.441a11.56 11.56 0 0 0-13.93 0l-9.822-9.822 9.822-9.822a11.56 11.56 0 0 0 13.93 0l9.822 9.822Zm2.357-22.001a11.6 11.6 0 0 0 2.198-5.3h15.248a11.6 11.6 0 0 0 2.198 5.3l-9.822 9.822ZM88.29 3.369a8.324 8.324 0 1 1-5.88 14.21 8.324 8.324 0 0 1 5.88-14.21m-38.288 0a8.324 8.324 0 0 1 5.886 14.204 8.31 8.31 0 0 1-11.76 0 8.324 8.324 0 0 1 5.874-14.204M3.389 11.693a8.324 8.324 0 1 1 14.21 5.88 8.324 8.324 0 0 1-14.21-5.88m17.646 6.965a11.6 11.6 0 0 0 2.198-5.3H38.48a11.6 11.6 0 0 0 2.198 5.3l-9.822 9.822ZM40.68 43.016a11.6 11.6 0 0 0-2.198 5.3H23.233a11.6 11.6 0 0 0-2.198-5.3l9.822-9.822ZM3.389 49.98a8.324 8.324 0 0 1 14.204-5.886 8.31 8.31 0 0 1 0 11.76A8.324 8.324 0 0 1 3.389 49.98m17.646 6.965a11.6 11.6 0 0 0 2.198-5.3H38.48a11.6 11.6 0 0 0 2.198 5.3l-9.822 9.822ZM40.68 81.304a11.6 11.6 0 0 0-2.198 5.3H23.233a11.6 11.6 0 0 0-2.198-5.3l9.822-9.822ZM11.713 96.593a8.324 8.324 0 1 1 5.876-14.212v.008a8.324 8.324 0 0 1-5.876 14.204m38.288 0a8.324 8.324 0 0 1-5.888-14.199v-.008a8.307 8.307 0 0 1 11.753 0v.008A8.324 8.324 0 0 1 50 96.593m46.612-8.324A8.324 8.324 0 1 1 82.4 82.394v-.008a8.324 8.324 0 0 1 14.212 5.883m-17.646-6.965a11.6 11.6 0 0 0-2.198 5.3H61.521a11.6 11.6 0 0 0-2.198-5.3l9.822-9.822ZM59.323 56.946a11.6 11.6 0 0 0 2.198-5.3h15.248a11.6 11.6 0 0 0 2.198 5.3l-9.822 9.822Zm37.29-6.965a8.324 8.324 0 0 1-14.204 5.886 8.31 8.31 0 0 1 0-11.76 8.324 8.324 0 0 1 14.204 5.874m-17.646-6.965a11.6 11.6 0 0 0-2.198 5.3H61.521a11.6 11.6 0 0 0-2.198-5.3l9.822-9.822Z"/>
  <path d="M120.072 49.385h-.05c0 1.235-.05 2.519 0 3.803.05 1.58.148 3.16.247 4.74 0 .544.148.692.642.79 1.037.248 2.025.297 3.062.297 2.666-.099 5.333.099 8 0 1.086-.05 1.58.05 2.666-.148.988-.198 1.334-.74 1.334-2.222-.099-.939-.05-1.334-.05-2.47 0-1.63-1.135-2.172-2.123-2.123-.691.05-4-.05-5.333-.05-2.223.05-1.877.346-1.877-1.975 0-1.876.05-4.296.05-6.222 0-1.037.098-1.383 1.086-1.383h6.173c.987.148 1.679-.543 1.679-1.58s.098-1.086.098-2.123l-.148-1.482c-.098-.84-.395-1.136-1.234-1.136-.543 0-1.087.05-1.63.1-2.123.147-3.111-.149-5.185 0-.691 0-.79-.1-.84-.742-.197-1.926 0-4.049.198-5.975.05-.79.247-.938.988-.988l6.963-.049c.938-.099 1.234-.05 1.185-.988-.099-1.432.05-2.913-.099-4.345-.099-.79-.346-.939-1.235-.939-1.481.05-1.827.05-3.308.149-1.482.049-7.408.049-8.84.049-2.074 0-2.222-.148-2.271 2.37-.1 1.976-.05 4-.05 6.025 0 3.457-.197 15.852-.098 18.617m28.372-26.963c-1.086.05-4 0-4.395 0-.691-.05-1.135.346-1.086 1.037 0 .297.099.593.247.84 1.432 2.716 2.765 5.778 4.05 8.543l3.11 6.519c.297.642.1 1.185-.148 1.827-.148.345-.247.74-.395 1.086a168 168 0 0 1-6.42 13.482c-.493.938-1.037 1.926-1.481 2.864-.593 1.185 1.383.889 3.605.889 3.506 0 3.555-.198 3.753-.642.543-1.136 3.802-11.21 4.74-11.21.741 0 4.396 9.728 5.235 11.309.198.395.84.592 1.334.592H164c.642 0 2.173.198 2.173-.642 0-.642-2.47-4.79-3.16-6.32L160 45.878c-.494-1.086-.938-2.173-1.432-3.21-.346-.84-.988-1.926-1.037-2.815 0-.493 5.58-11.308 7.654-16.395.494-1.234-1.383-.987-2.025-.987-1.185.05-2.172 0-3.308.05-1.087 0-1.383.295-1.778 1.234l-.296.691c-.988 2.074-2.42 5.877-3.457 7.95-.05.1-.198.248-.296.248a.32.32 0 0 1-.297-.297c-.84-2.123-2.568-6.617-3.555-8.642-.445-.889-.692-1.333-1.729-1.284m28.126 36.692c.149.05.593.05 1.037.05.988 0 1.284-3.556 1.383-4.297.05-.593.198-.642.692-.74 2.469-.297 3.703-.1 6.172-.05.544 0 .84.247.988.691l.346 1.136c.296.84.543 1.876.84 2.716.197.593.246.543.839.543.79 0 3.654 0 4.494-.05 1.135 0 .345-2.32.197-2.715-.444-1.383-.543-2.815-.988-4.198-.197-.592-5.827-27.309-6.074-28.79-.345-.889-.05-.938-.84-.938-1.678 0-3.456.098-5.184 0-.692 0-.642.197-.741.938-.099.691-1.877 8.543-2.568 11.802-.889 4.1-1.679 8.05-2.667 12.1-.345 1.431-2.716 11.752-2.42 11.802.149.099.396.05.593.05 1.235 0 2.37 0 3.901-.05m6.47-11.21h-1.038c-1.382 0-1.432 0-1.086-1.432.247-1.087 1.58-6.963 1.877-8.395.049-.1.148-.198.197-.198.099 0 .198.099.247.148.198.593.395 2.074.593 2.667.444 1.876.74 3.457 1.185 5.481.444 1.778.247 1.778-.642 1.778-.445 0-.889-.05-1.333-.05m23.928-25.382c-.494 0-.988.05-1.482.05-.74 0-1.63-.149-1.777.839-.494 4.198-.939 8.84-1.432 13.037-.84 6.914-1.63 14.025-2.42 20.938-.099.939-.198 1.828.84 2.025a39 39 0 0 0 4.098.05c.494.049 1.037.098 1.185-.494.1-.247.1-.494.1-.741.098-1.136 1.58-15.358 2.172-15.358.938 0 3.407 11.555 4.593 15.802.148.593.444.84 1.037.79 1.234-.098 2.42 0 3.654 0s.988-.79 1.234-1.827c.297-1.136 3.161-14.815 3.852-14.815.79 0 2.42 15.852 2.568 16.198.297.691 1.136.395 1.729.395.889 0 1.728.099 2.864 0 .84-.099 1.679.198 1.728-.889 0-.247-.099-.494-.148-.74a110 110 0 0 0-.691-3.951c-.346-2.568-.84-5.087-1.185-7.655-.494-4.049-.988-8.098-1.433-12.148-.345-3.457-.84-7.358-1.135-10.815-.1-1.135-1.383-.74-2.173-.74h-3.408c-.543 0-.79 1.037-.889 1.58-.296 1.383-3.703 19.21-4.839 19.21s-4.79-16.296-5.432-19.852c-.148-.79-.692-1.037-1.432-1.037zm30.447 26.864h-.05c0 1.235-.049 2.519 0 3.803.05 1.58.149 3.16.247 4.74 0 .544.149.692.642.79 1.037.248 2.025.297 3.062.297 2.667-.099 5.334.099 8 0 1.087-.05 1.58.05 2.667-.148.988-.198 1.333-.74 1.333-2.222-.099-.939-.05-1.334-.05-2.47 0-1.63-1.135-2.172-2.123-2.123-.691.05-4-.05-5.333-.05-2.222.05-1.877.346-1.877-1.975 0-1.876.05-4.296.05-6.222 0-1.037.099-1.383 1.086-1.383h6.173c.988.148 1.68-.543 1.68-1.58s.098-1.086.098-2.123l-.148-1.482c-.099-.84-.395-1.136-1.235-1.136-.543 0-1.086.05-1.63.1-2.123.147-3.11-.149-5.185 0-.691 0-.79-.1-.84-.742-.197-1.926 0-4.049.198-5.975.05-.79.247-.938.988-.988l6.963-.049c.938-.099 1.235-.05 1.185-.988-.099-1.432.05-2.913-.099-4.345-.098-.79-.345-.939-1.234-.939-1.482.05-1.827.05-3.309.149-1.481.049-7.407.049-8.84.049-2.073 0-2.222-.148-2.27 2.37-.1 1.976-.05 4-.05 6.025 0 3.457-.198 15.852-.1 18.617m42.794-25.777c.148.69.049 33.58.049 34.42 0 1.48-.543 1.431-1.53 1.431-1.482 0-3.556.247-4-.246-.396-.346-7.705-17.976-8.742-20.198-.098-.198-.345-.691-.543-.593-.247.1-.148.445-.148.642-.05 1.729.247 16.642.247 19.013 0 1.185-.05 1.382-1.037 1.382h-2.47c-.641 0-1.431-.049-2.073.05-.494 0-.741-.148-.79-.642v-3.901c.098-4.149 0-28.741 0-30.568 0-1.58.444-1.877 2.024-1.877 1.087-.05 2.173-.05 3.26-.05.345 0 .543.05.74.495 1.334 3.11 7.013 17.382 7.901 19.11.149.346.692 1.73.988 1.877h.05c.197-.197.148-1.185.148-1.481 0-.741-.395-18.074-.395-18.42 0-.494-.149-.938.098-1.284.149-.198.79-.247 1.037-.296 1.383-.1 3.013.05 4.395 0 .692 0 .642.494.79 1.136m28.077 27.604c.05 2.37 0 4.79-.148 7.161 0 .198-.148.395-.296.494a1.18 1.18 0 0 1-.692.247c-3.061.494-6.765.74-9.728-.247-6.667-2.272-11.21-9.729-11.21-18.272 0-9.234 6.617-18.222 16.247-18.568 1.284-.05 5.679-.247 5.53 1.926-.098 1.58.05 2.864 0 4.494 0 .296-.197.494-.493.444-2.815-.345-6.025-1.234-8.74.05-2.272 1.086-3.853 3.407-4.741 5.679-1.58 3.753-1.235 8.099-.149 11.95.84 3.062 2.667 6.667 6.321 6.766.198.05 2.074.148 2.074-.05l-.148-6.32c-.049-.297-.049-.593-.098-.89s-.247-.394-.544-.444c-.79 0-.79-.05-1.58-.05-1.827 0-1.432-1.234-1.481-1.629-.05-.74 0-1.432-.05-2.173-.05-.691.148-1.234.84-1.333h.592c2.568-.148 5.186.05 7.902.05.395 0 .592.493.592.938.05.494.05.84.05 1.333.148 2.42-.149 4.889-.1 7.309.05.395.05.74.05 1.135m12.768-4.444c-.148-5.63-.099-11.605-.05-17.185 0-1.729-.098-3.605-.098-5.334 0-1.876-.74-1.777-1.728-1.827-1.433-.05-2.075-.05-3.507-.05-.938-.048-1.333.198-1.333 1.137 0 4.84-.148 18.518-.099 20.494s.247 10.963.148 12.938c-.049.691 0 1.383.05 2.074.05.247.197.494.592.494 1.63-.099 3.16-.099 4.79-.148.593-.05 1.087-.198 1.334-.84.05-.346-.099-9.383-.099-11.753m26.99-23.16c.148.69.05 33.58.05 34.42 0 1.48-.544 1.431-1.531 1.431-1.482 0-3.556.247-4-.246-.395-.346-7.704-17.976-8.741-20.198-.099-.198-.346-.691-.543-.593-.247.1-.148.445-.148.642-.05 1.729.247 16.642.247 19.013 0 1.185-.05 1.382-1.037 1.382h-2.47c-.642 0-1.432-.049-2.074.05-.493 0-.74-.148-.79-.642v-3.901c.099-4.149 0-28.741 0-30.568 0-1.58.445-1.877 2.025-1.877 1.086-.05 2.173-.05 3.26-.05.345 0 .542.05.74.495 1.333 3.11 7.012 17.382 7.901 19.11.148.346.692 1.73.988 1.877h.05c.197-.197.147-1.185.147-1.481 0-.741-.395-18.074-.395-18.42 0-.494-.148-.938.099-1.284.148-.198.79-.247 1.037-.296 1.383-.1 3.012.05 4.395 0 .692 0 .642.494.79 1.136m6.052 25.777h-.05c0 1.235-.049 2.519 0 3.803.05 1.58.149 3.16.248 4.74 0 .544.148.692.642.79 1.037.248 2.024.297 3.061.297 2.667-.099 5.334.099 8 0 1.087-.05 1.58.05 2.667-.148.988-.198 1.333-.74 1.333-2.222-.098-.939-.049-1.334-.049-2.47 0-1.63-1.136-2.172-2.123-2.123-.692.05-4-.05-5.334-.05-2.222.05-1.876.346-1.876-1.975 0-1.876.05-4.296.05-6.222 0-1.037.098-1.383 1.085-1.383h6.173c.988.148 1.68-.543 1.68-1.58s.098-1.086.098-2.123l-.148-1.482c-.099-.84-.395-1.136-1.235-1.136-.543 0-1.086.05-1.63.1-2.123.147-3.11-.149-5.184 0-.692 0-.79-.1-.84-.742-.197-1.926 0-4.049.198-5.975.049-.79.247-.938.987-.988l6.963-.049c.938-.099 1.235-.05 1.185-.988-.098-1.432.05-2.913-.098-4.345-.1-.79-.346-.939-1.235-.939-1.481.05-1.827.05-3.309.149-1.481.049-7.407.049-8.84.049-2.073 0-2.221-.148-2.27 2.37-.1 1.976-.05 4-.05 6.025 0 3.457-.198 15.852-.099 18.617M123.04 70q1.369 0 2.178.627c.81.626.81 1.01.81 1.775h-1.588q-.031-.564-.381-.846c-.35-.282-.594-.282-1.081-.282q-.512 0-.826.225c-.313.224-.313.356-.313.621q0 .324.193.47c.194.147.312.185.549.261s.651.188 1.243.335q.93.23 1.43.501c.502.272.59.413.763.695s.261.628.261 1.039q0 .71-.376 1.264c-.376.553-.616.65-1.096.84s-1.024.288-1.63.288q-1.39 0-2.282-.695C120 76.424 120 76.02 120 75.212v-.052h1.587q0 .658.45 1.018c.449.36.696.36 1.19.36q.658 0 1.06-.234c.403-.235.403-.388.403-.695q0-.303-.22-.512c-.219-.209-.34-.252-.585-.34s-.654-.196-1.232-.328q-1.003-.251-1.463-.533c-.46-.282-.539-.416-.7-.684s-.24-.59-.24-.966q0-.7.403-1.223c.402-.522.617-.605 1.05-.772S122.58 70 123.04 70m13.474 0q1.305 0 2.193.736c.888.737.933 1.14 1.024 1.948h-1.588q-.083-.553-.553-.93c-.47-.375-.672-.375-1.076-.375q-.961 0-1.494.689c-.533.69-.533 1.083-.533 1.87q0 1.149.538 1.822c.538.674.855.674 1.489.674q.71 0 1.149-.433c.439-.434.473-.702.543-1.238h1.588q-.126 1.42-1.019 2.235c-.893.815-1.35.815-2.261.815q-1.64 0-2.653-1.081c-1.014-1.081-1.014-1.652-1.014-2.794q0-1.734 1.003-2.836C134.853 70 135.407 70 136.514 70m11.958.177v2.862h3.019v-2.862h1.64v7.458h-1.64v-3.217h-3.019v3.217h-1.64v-7.458zm17.6 0v1.38h-3.938v1.597h3.614v1.275h-3.614v1.828h4.021v1.378h-5.661v-7.458zm10.308 0q1.587 0 2.496.982c.909.982.909 1.557.909 2.706q0 1.786-.914 2.778c-.914.992-1.426.992-2.45.992h-3.238v-7.458zm-.105 6.08q.888 0 1.38-.585c.49-.585.49-.944.49-1.661q0-1.233-.527-1.844c-.528-.61-.894-.61-1.625-.61h-1.17v4.7zm12.178-6.08v4.67q0 .825.37 1.206c.372.381.636.381 1.166.381q.856 0 1.2-.381c.345-.381.345-.657.345-1.207v-4.669h1.64v4.67q0 1.4-.799 2.183c-.799.783-1.328.783-2.386.783q-1.619 0-2.398-.783c-.778-.784-.778-1.25-.778-2.184v-4.669zm13.693 0v6.08h3.635v1.378h-5.275v-7.458zm16.053 0v1.38h-3.937v1.597h3.614v1.275h-3.614v1.828h4.021v1.378h-5.661v-7.458zM236.706 70q1.368 0 2.178.627c.81.626.81 1.01.81 1.775h-1.588q-.032-.564-.381-.846c-.35-.282-.594-.282-1.082-.282q-.511 0-.825.225c-.313.224-.313.356-.313.621q0 .324.193.47c.193.147.311.185.549.261s.65.188 1.243.335q.93.23 1.43.501c.502.272.589.413.763.695s.261.628.261 1.039q0 .71-.376 1.264c-.376.553-.616.65-1.097.84s-1.023.288-1.63.288q-1.388 0-2.281-.695c-.894-.694-.894-1.098-.894-1.906v-.052h1.588q0 .658.45 1.018c.448.36.696.36 1.19.36q.658 0 1.06-.234c.402-.235.402-.388.402-.695q0-.303-.219-.512c-.22-.209-.341-.252-.585-.34s-.655-.196-1.232-.328q-1.003-.251-1.463-.533c-.46-.282-.54-.416-.7-.684s-.24-.59-.24-.966q0-.7.402-1.223c.402-.522.618-.605 1.05-.772s.878-.251 1.337-.251m12.439.177 1.744 5.13h.021l1.65-5.13h2.31v7.458h-1.536V72.35h-.021l-1.828 5.285h-1.264l-1.828-5.233h-.021v5.233h-1.535v-7.458zm16.806 0 2.789 7.458h-1.703l-.564-1.66h-2.789l-.585 1.66h-1.66l2.83-7.458zm-.867 1.839-.972 2.736h1.933l-.94-2.736zm14.246-1.839q.94 0 1.561.58c.622.58.622.88.622 1.478q0 1.4-1.18 1.87v.02q.396.116.62.382c.225.266.264.385.34.622s.126.616.147 1.138q.041 1.024.292 1.368h-1.64q-.136-.344-.209-1.295-.083-1.003-.365-1.31c-.282-.309-.495-.309-.92-.309h-1.65v2.914h-1.64v-7.458zm-.575 3.374q.522 0 .82-.235c.298-.235.298-.433.298-.83q0-.564-.293-.8c-.292-.234-.473-.234-.835-.234h-1.797v2.1zm15.353-3.374v1.38h-2.235v6.078h-1.64v-6.079h-2.235v-1.379zm12.356 0v1.38h-3.938v1.597h3.614v1.275h-3.614v1.828h4.022v1.378h-5.662v-7.458zm11.133 0q.94 0 1.562.58c.621.58.621.88.621 1.478q0 1.4-1.18 1.87v.02q.397.116.622.382c.224.266.263.385.34.622s.124.616.145 1.138q.042 1.024.293 1.368h-1.64q-.136-.344-.209-1.295-.084-1.003-.366-1.31c-.282-.309-.494-.309-.919-.309h-1.65v2.914h-1.64v-7.458zm-.574 3.374q.522 0 .82-.235c.298-.235.298-.433.298-.83q0-.564-.293-.8c-.292-.234-.473-.234-.836-.234h-1.796v2.1z"/>
</svg>
