<svg width="10000" height="10000" viewBox="0 0 100 100" xmlns="http://www.w3.org/2000/svg">
  <style>
    path {
      fill: #000000;
    }
    
    @media (prefers-color-scheme: dark) {
      path {
        fill: #ffffff !important;
      }
    }
  </style>
  
  <path d="M11.713 6.699a4.994 4.994 0 0 0-4.994 4.994 1.665 1.665 0 0 0 3.33 0 1.665 1.665 0 0 1 1.664-1.665 1.665 1.665 0 0 0 0-3.33m34.959 6.66a1.665 1.665 0 0 0 1.664-1.665 1.665 1.665 0 0 1 1.665-1.665 1.665 1.665 0 0 0 0-3.33 4.994 4.994 0 0 0-4.994 4.995 1.665 1.665 0 0 0 1.665 1.665m38.288 0a1.665 1.665 0 0 0 1.664-1.665 1.665 1.665 0 0 1 1.665-1.665 1.665 1.665 0 0 0 0-3.33 4.994 4.994 0 0 0-4.994 4.995 1.665 1.665 0 0 0 1.665 1.665M11.713 44.987a4.994 4.994 0 0 0-4.994 4.994 1.665 1.665 0 0 0 3.33 0 1.665 1.665 0 0 1 1.664-1.665 1.665 1.665 0 0 0 0-3.33m34.959 6.66a1.665 1.665 0 0 0 1.664-1.665 1.665 1.665 0 0 1 1.665-1.665 1.665 1.665 0 0 0 0-3.33 4.994 4.994 0 0 0-4.994 4.995 1.665 1.665 0 0 0 1.665 1.665m38.288 0a1.665 1.665 0 0 0 1.664-1.665 1.665 1.665 0 0 1 1.665-1.665 1.665 1.665 0 0 0 0-3.33 4.994 4.994 0 0 0-4.994 4.995 1.665 1.665 0 0 0 1.665 1.665M11.713 83.275a4.994 4.994 0 0 0-4.994 4.994 1.665 1.665 0 0 0 3.33 0 1.665 1.665 0 0 1 1.664-1.665 1.665 1.665 0 0 0 0-3.329m38.288 0a4.994 4.994 0 0 0-4.994 4.994 1.665 1.665 0 0 0 3.33 0A1.665 1.665 0 0 1 50 86.604a1.665 1.665 0 0 0 0-3.329m34.959 6.659a1.665 1.665 0 0 0 1.664-1.665 1.665 1.665 0 0 1 1.665-1.665 1.665 1.665 0 0 0 0-3.329 4.994 4.994 0 0 0-4.994 4.994 1.665 1.665 0 0 0 1.665 1.665"/>
  <path d="M81.324 21.015a11.653 11.653 0 1 0-4.555-10.987H61.521a11.638 11.638 0 0 0-23.04 0H23.233a11.675 11.675 0 1 0-4.555 10.987l9.822 9.822-9.822 9.822a11.653 11.653 0 1 0 0 18.644l9.822 9.822-9.822 9.822a11.653 11.653 0 1 0 4.555 10.987H38.48a11.638 11.638 0 0 0 23.04 0h15.248a11.673 11.673 0 1 0 4.553-10.987L71.5 69.125l9.821-9.822a11.653 11.653 0 1 0 0-18.644L71.5 30.837ZM56.968 78.947a11.57 11.57 0 0 0-13.934 0l-9.821-9.822 9.821-9.822a11.56 11.56 0 0 0 13.93 0l9.822 9.822ZM44.12 44.1a8.31 8.31 0 0 1 11.76 0 8.31 8.31 0 0 1 0 11.76 8.31 8.31 0 0 1-11.76 0 8.31 8.31 0 0 1 0-11.76m12.846-3.441a11.56 11.56 0 0 0-13.93 0l-9.822-9.822 9.822-9.822a11.56 11.56 0 0 0 13.93 0l9.822 9.822Zm2.357-22.001a11.6 11.6 0 0 0 2.198-5.3h15.248a11.6 11.6 0 0 0 2.198 5.3l-9.822 9.822ZM88.29 3.369a8.324 8.324 0 1 1-5.88 14.21 8.324 8.324 0 0 1 5.88-14.21m-38.288 0a8.324 8.324 0 0 1 5.886 14.204 8.31 8.31 0 0 1-11.76 0 8.324 8.324 0 0 1 5.874-14.204M3.389 11.693a8.324 8.324 0 1 1 14.21 5.88 8.324 8.324 0 0 1-14.21-5.88m17.646 6.965a11.6 11.6 0 0 0 2.198-5.3H38.48a11.6 11.6 0 0 0 2.198 5.3l-9.822 9.822ZM40.68 43.016a11.6 11.6 0 0 0-2.198 5.3H23.233a11.6 11.6 0 0 0-2.198-5.3l9.822-9.822ZM3.389 49.98a8.324 8.324 0 0 1 14.204-5.886 8.31 8.31 0 0 1 0 11.76A8.324 8.324 0 0 1 3.389 49.98m17.646 6.965a11.6 11.6 0 0 0 2.198-5.3H38.48a11.6 11.6 0 0 0 2.198 5.3l-9.822 9.822ZM40.68 81.304a11.6 11.6 0 0 0-2.198 5.3H23.233a11.6 11.6 0 0 0-2.198-5.3l9.822-9.822ZM11.713 96.593a8.324 8.324 0 1 1 5.876-14.212v.008a8.324 8.324 0 0 1-5.876 14.204m38.288 0a8.324 8.324 0 0 1-5.888-14.199v-.008a8.307 8.307 0 0 1 11.753 0v.008A8.324 8.324 0 0 1 50 96.593m46.612-8.324A8.324 8.324 0 1 1 82.4 82.394v-.008a8.324 8.324 0 0 1 14.212 5.883m-17.646-6.965a11.6 11.6 0 0 0-2.198 5.3H61.521a11.6 11.6 0 0 0-2.198-5.3l9.822-9.822ZM59.323 56.946a11.6 11.6 0 0 0 2.198-5.3h15.248a11.6 11.6 0 0 0 2.198 5.3l-9.822 9.822Zm37.29-6.965a8.324 8.324 0 0 1-14.204 5.886 8.31 8.31 0 0 1 0-11.76 8.324 8.324 0 0 1 14.204 5.874m-17.646-6.965a11.6 11.6 0 0 0-2.198 5.3H61.521a11.6 11.6 0 0 0-2.198-5.3l9.822-9.822Z"/>
</svg>
